<svg xmlns="http://www.w3.org/2000/svg" width="1060" height="597" viewBox="0 0 1060 597" fill="none">
  <g style="mix-blend-mode:color-dodge">
    <path fill-rule="evenodd" clip-rule="evenodd" d="M464.375 -44.625L502.9 527.867L478.406 522.205L234.097 -44.625H75.1218L377.09 472.941L377.11 472.975L377.088 472.953L-0.000488281 84.375V239.2L281.557 476.698L-0.000488281 411.602V492.008L368.061 549.665L473.957 638.99L473.974 639.004L501.408 686.006L513.34 682.883L515.12 709.482H560.651L562.728 678.633L562.728 678.632L585.861 639.002L585.875 638.99L675.232 563.616L1059.83 503.38V428.367L804.626 487.369L750.9 499.789L1059.83 239.2V84.375L682.743 472.953L682.726 472.971L682.744 472.941L984.711 -44.625H825.736L573.396 540.827L571.973 541.157L611.395 -44.625H464.375ZM499.088 570.191L505.819 571.245L506.98 588.501L499.088 570.191Z" fill="url(#paint0_linear_5715_156656)"/>
  </g>
  <defs>
    <linearGradient id="paint0_linear_5715_156656" x1="529.917" y1="-44.625" x2="529.917" y2="709.482" gradientUnits="userSpaceOnUse">
      <stop stop-color="#654F81"/>
      <stop offset="1" stop-color="#0C0B0E" stop-opacity="0"/>
    </linearGradient>
  </defs>
</svg>
