<svg viewBox="0 0 105 106" fill="none" xmlns="http://www.w3.org/2000/svg">
  <mask id="path-1-outside-1_5880_13706" maskUnits="userSpaceOnUse" x="3.75281" y="4.4375" width="100" height="100" fill="black">
    <rect fill="white" x="3.75281" y="4.4375" width="100" height="100" />
    <path fill-rule="evenodd" clip-rule="evenodd" d="M64.5907 13.6309C64.1253 11.7694 61.5243 7.90309 54.8282 6.44047C54.6531 6.40221 54.5356 6.74493 54.6873 6.84047C56.8202 8.18385 59.604 10.934 58.6282 12.8856C58.5639 12.8428 58.4831 12.7863 58.3872 12.7193C57.4134 12.039 54.8786 10.2681 52.2758 10.5921C52.144 10.6085 52.1083 10.7769 52.2165 10.8539C53.4941 11.7626 55.4033 13.4654 55.6912 14.977C49.4953 16.8818 44.3729 21.4848 42.4804 28.0821C41.0305 33.1382 42.3377 37.5707 44.8094 42.0183C46.2819 44.6628 46.68 46.9842 45.2 49.7489C44.2309 51.5595 42.7434 53.0545 41.1657 54.4068C39.9111 55.113 38.6264 55.7441 37.3793 56.285C28.4391 60.1691 18.1241 60.4696 9.04867 56.8559C7.74145 56.3376 6.67464 57.2616 6.44174 58.3209C6.32905 58.5914 6.28398 58.8919 6.35159 59.1924C6.77231 61.0556 7.58368 62.8211 8.72562 64.3687C8.02694 63.5949 6.24641 64.271 5.87829 65.3679C5.48011 66.5399 6.10367 67.7119 6.7122 68.7411C7.20767 69.5819 7.705 70.4208 8.20234 71.2597L8.20347 71.2616C8.7012 72.1012 9.19892 72.9407 9.69477 73.7822C8.86836 73.5944 8.02694 74.4433 7.98937 75.2472V75.2772C6.83241 75.8707 6.11118 77.0953 6.75728 78.6805C10.416 87.6582 18.4997 93.7586 27.1845 97.545C36.35 101.534 46.5523 103.165 56.4842 101.79C73.8161 99.3931 97.2484 87.1173 91.7265 66.0516C90.7849 62.4564 88.8275 59.3539 86.8699 56.2511C85.9067 54.7244 84.9434 53.1977 84.1011 51.612C83.5977 50.6654 83.1394 49.6963 82.7112 48.7121C82.6436 47.3899 82.7262 46.0601 82.869 44.7454C82.952 44.0094 83.0521 43.2753 83.1604 42.5422L83.2235 42.6981L85.025 41.7003C85.0952 41.6909 85.1653 41.6811 85.2353 41.671C86.3171 41.8288 87.3914 41.919 88.4207 41.9565C90.9149 42.0392 102.687 42.4073 101.816 37.509H101.808C101.485 35.7134 98.8033 35.0523 97.3683 34.7218C96.5867 34.5417 95.8187 34.3745 95.0624 34.2099C92.1327 33.5723 89.3799 32.9732 86.6987 31.8106C86.1603 29.9631 85.0628 28.552 83.7205 27.587C82.0373 21.2481 76.8144 17.2094 70.7208 15.2954C69.6465 14.8446 68.5422 14.4991 67.4228 14.2962C67.3814 14.2887 67.3383 14.2831 67.2951 14.2774L67.295 14.2774L67.295 14.2774C67.2518 14.2718 67.2086 14.2662 67.1673 14.2587C66.4761 14.0558 65.7699 13.898 65.0562 13.7929C64.8837 13.7674 64.7117 13.7453 64.54 13.7265C64.5576 13.695 64.5745 13.6632 64.5907 13.6309Z" />
  </mask>
  <path fill-rule="evenodd" clip-rule="evenodd" d="M64.5907 13.6309C64.1253 11.7694 61.5243 7.90309 54.8282 6.44047C54.6531 6.40221 54.5356 6.74493 54.6873 6.84047C56.8202 8.18385 59.604 10.934 58.6282 12.8856C58.5639 12.8428 58.4831 12.7863 58.3872 12.7193C57.4134 12.039 54.8786 10.2681 52.2758 10.5921C52.144 10.6085 52.1083 10.7769 52.2165 10.8539C53.4941 11.7626 55.4033 13.4654 55.6912 14.977C49.4953 16.8818 44.3729 21.4848 42.4804 28.0821C41.0305 33.1382 42.3377 37.5707 44.8094 42.0183C46.2819 44.6628 46.68 46.9842 45.2 49.7489C44.2309 51.5595 42.7434 53.0545 41.1657 54.4068C39.9111 55.113 38.6264 55.7441 37.3793 56.285C28.4391 60.1691 18.1241 60.4696 9.04867 56.8559C7.74145 56.3376 6.67464 57.2616 6.44174 58.3209C6.32905 58.5914 6.28398 58.8919 6.35159 59.1924C6.77231 61.0556 7.58368 62.8211 8.72562 64.3687C8.02694 63.5949 6.24641 64.271 5.87829 65.3679C5.48011 66.5399 6.10367 67.7119 6.7122 68.7411C7.20767 69.5819 7.705 70.4208 8.20234 71.2597L8.20347 71.2616C8.7012 72.1012 9.19892 72.9407 9.69477 73.7822C8.86836 73.5944 8.02694 74.4433 7.98937 75.2472V75.2772C6.83241 75.8707 6.11118 77.0953 6.75728 78.6805C10.416 87.6582 18.4997 93.7586 27.1845 97.545C36.35 101.534 46.5523 103.165 56.4842 101.79C73.8161 99.3931 97.2484 87.1173 91.7265 66.0516C90.7849 62.4564 88.8275 59.3539 86.8699 56.2511C85.9067 54.7244 84.9434 53.1977 84.1011 51.612C83.5977 50.6654 83.1394 49.6963 82.7112 48.7121C82.6436 47.3899 82.7262 46.0601 82.869 44.7454C82.952 44.0094 83.0521 43.2753 83.1604 42.5422L83.2235 42.6981L85.025 41.7003C85.0952 41.6909 85.1653 41.6811 85.2353 41.671C86.3171 41.8288 87.3914 41.919 88.4207 41.9565C90.9149 42.0392 102.687 42.4073 101.816 37.509H101.808C101.485 35.7134 98.8033 35.0523 97.3683 34.7218C96.5867 34.5417 95.8187 34.3745 95.0624 34.2099C92.1327 33.5723 89.3799 32.9732 86.6987 31.8106C86.1603 29.9631 85.0628 28.552 83.7205 27.587C82.0373 21.2481 76.8144 17.2094 70.7208 15.2954C69.6465 14.8446 68.5422 14.4991 67.4228 14.2962C67.3814 14.2887 67.3383 14.2831 67.2951 14.2774L67.295 14.2774L67.295 14.2774C67.2518 14.2718 67.2086 14.2662 67.1673 14.2587C66.4761 14.0558 65.7699 13.898 65.0562 13.7929C64.8837 13.7674 64.7117 13.7453 64.54 13.7265C64.5576 13.695 64.5745 13.6632 64.5907 13.6309Z" fill="#FFE36C" />
  <path d="M54.8282 6.44047L55.1488 4.97253V4.97253L54.8282 6.44047ZM64.5907 13.6309L65.9346 14.3029L66.1832 13.8057L66.0483 13.2665L64.5907 13.6309ZM54.6873 6.84047L53.8865 8.11185V8.11185L54.6873 6.84047ZM58.6282 12.8856L57.7947 14.1358L59.2109 15.0799L59.9721 13.5575L58.6282 12.8856ZM58.3872 12.7193L59.2477 11.4875V11.4875L58.3872 12.7193ZM52.2758 10.5921L52.0902 9.10109L52.0902 9.10109L52.2758 10.5921ZM52.2165 10.8539L51.3457 12.0783L51.3457 12.0783L52.2165 10.8539ZM55.6912 14.977L56.1328 16.4132L57.4191 16.0177L57.1672 14.6958L55.6912 14.977ZM42.4804 28.0821L41.0361 27.6678L41.0361 27.6679L42.4804 28.0821ZM44.8094 42.0183L43.496 42.7482L43.4966 42.7492L44.8094 42.0183ZM45.2 49.7489L43.8753 49.0397L43.8753 49.0398L45.2 49.7489ZM41.1657 54.4068L41.9027 55.7162L42.0314 55.6437L42.1435 55.5476L41.1657 54.4068ZM37.3793 56.285L36.7814 54.9065L36.7805 54.9069L37.3793 56.285ZM9.04867 56.8559L9.60451 55.46L9.60255 55.4592L9.04867 56.8559ZM6.44174 58.3209L7.82871 58.8988L7.88039 58.7748L7.90925 58.6436L6.44174 58.3209ZM6.35159 59.1924L4.88569 59.5222L4.88594 59.5234L6.35159 59.1924ZM8.72562 64.3687L7.6104 65.3756L9.93467 63.4766L8.72562 64.3687ZM5.87829 65.3679L7.30098 65.8512L7.30275 65.846L5.87829 65.3679ZM6.7122 68.7411L8.00671 67.9783L8.0056 67.9764L6.7122 68.7411ZM8.20234 71.2597L6.90985 72.026L6.91015 72.0265L8.20234 71.2597ZM8.20347 71.2616L9.49596 70.4954L9.49566 70.4949L8.20347 71.2616ZM9.69477 73.7822L9.36177 75.2474L12.7569 76.019L10.9893 73.0193L9.69477 73.7822ZM7.98937 75.2472L6.48846 75.177L6.48682 75.2121V75.2472H7.98937ZM7.98937 75.2772L8.67519 76.6141L9.49192 76.1951V75.2772H7.98937ZM6.75728 78.6805L8.14872 78.1134L8.1487 78.1134L6.75728 78.6805ZM27.1845 97.545L26.584 98.9223L26.5848 98.9227L27.1845 97.545ZM56.4842 101.79L56.2784 100.301L56.2782 100.301L56.4842 101.79ZM91.7265 66.0516L90.273 66.4322L90.273 66.4325L91.7265 66.0516ZM86.8699 56.2511L88.1407 55.4494V55.4494L86.8699 56.2511ZM84.1011 51.612L85.428 50.9071L85.4277 50.9066L84.1011 51.612ZM82.7112 48.7121L81.2106 48.7889L81.2245 49.0614L81.3334 49.3116L82.7112 48.7121ZM82.869 44.7454L81.3759 44.577L81.3752 44.5832L82.869 44.7454ZM83.1604 42.5422L84.5534 41.9789L82.482 36.8564L81.674 42.3225L83.1604 42.5422ZM83.2235 42.6981L81.8305 43.2614L82.4668 44.8348L83.9515 44.0125L83.2235 42.6981ZM85.025 41.7003L84.8252 40.2111L84.5447 40.2487L84.297 40.3859L85.025 41.7003ZM85.2353 41.671L85.4521 40.1842L85.2364 40.1528L85.0206 40.1839L85.2353 41.671ZM88.4207 41.9565L88.3659 43.4581L88.3709 43.4583L88.4207 41.9565ZM101.816 37.509L103.295 37.2458L103.075 36.0064H101.816V37.509ZM101.808 37.509L100.33 37.775L100.552 39.0115H101.808V37.509ZM97.3683 34.7218L97.031 36.1859L97.031 36.186L97.3683 34.7218ZM95.0624 34.2099L95.382 32.7417L95.0624 34.2099ZM86.6987 31.8106L85.2562 32.231L85.4536 32.9084L86.101 33.1891L86.6987 31.8106ZM83.7205 27.587L82.2683 27.9726L82.4064 28.4928L82.8434 28.807L83.7205 27.587ZM70.7208 15.2954L70.1395 16.6809L70.2039 16.708L70.2706 16.7289L70.7208 15.2954ZM67.4228 14.2962L67.154 15.7745L67.1548 15.7747L67.4228 14.2962ZM67.2951 14.2774L67.4894 12.7875L67.4814 12.7865L67.2951 14.2774ZM67.295 14.2774L67.1007 15.7674L67.1086 15.7684L67.295 14.2774ZM67.1673 14.2587L66.7442 15.7004L66.8204 15.7228L66.8985 15.737L67.1673 14.2587ZM65.0562 13.7929L64.8369 15.2793L64.8372 15.2794L65.0562 13.7929ZM64.54 13.7265L63.2291 12.9921L62.1196 14.9726L64.3762 15.2201L64.54 13.7265ZM54.5076 7.9084C60.7427 9.27035 62.8287 12.7781 63.133 13.9953L66.0483 13.2665C65.4219 10.7608 62.3059 6.53584 55.1488 4.97253L54.5076 7.9084ZM55.4881 5.56908C55.9023 5.83001 56.0587 6.22336 56.1023 6.48248C56.144 6.72931 56.1057 6.93626 56.0543 7.08396C56.0042 7.22815 55.8997 7.43517 55.6834 7.61884C55.4429 7.82298 55.0188 8.02007 54.5076 7.9084L55.1488 4.97253C54.5501 4.84173 54.0455 5.06732 53.7386 5.32795C53.4557 5.5681 53.2985 5.8596 53.2161 6.09663C53.1324 6.33718 53.0823 6.64533 53.1391 6.98209C53.1979 7.33114 53.3964 7.80316 53.8865 8.11185L55.4881 5.56908ZM59.9721 13.5575C60.88 11.7416 59.9087 9.88839 59.0171 8.72231C58.043 7.44827 56.6666 6.31137 55.4881 5.56908L53.8865 8.11185C54.8409 8.71295 55.9228 9.6228 56.6299 10.5476C57.4195 11.5803 57.3521 12.078 57.2842 12.2136L59.9721 13.5575ZM57.5266 13.951C57.6174 14.0144 57.7137 14.0818 57.7947 14.1358L59.4616 11.6354C59.4142 11.6037 59.3488 11.5582 59.2477 11.4875L57.5266 13.951ZM52.4614 12.0832C53.3803 11.9688 54.3722 12.2194 55.3248 12.6489C56.2662 13.0733 57.0435 13.6135 57.5266 13.951L59.2477 11.4875C58.7571 11.1448 57.7801 10.4594 56.5599 9.90932C55.351 9.36428 53.7741 8.89146 52.0902 9.10109L52.4614 12.0832ZM53.0874 9.62945C53.5585 9.96453 53.7324 10.5303 53.6234 11.0241C53.5112 11.5327 53.0844 12.0056 52.4614 12.0832L52.0902 9.10109C50.4353 9.3071 50.2566 11.3037 51.3457 12.0783L53.0874 9.62945ZM57.1672 14.6958C56.9417 13.5121 56.1496 12.4499 55.4285 11.6696C54.6683 10.8469 53.7875 10.1274 53.0874 9.62945L51.3457 12.0783C51.9232 12.4891 52.6357 13.0753 53.2215 13.7091C53.8464 14.3853 54.1528 14.9303 54.2152 15.2581L57.1672 14.6958ZM55.2497 13.5407C48.6281 15.5765 43.085 20.525 41.0361 27.6678L43.9247 28.4964C45.6607 22.4446 50.3625 18.1872 56.1328 16.4132L55.2497 13.5407ZM41.0361 27.6679C39.4322 33.2606 40.9246 38.1212 43.496 42.7482L46.1227 41.2884C43.7508 37.0203 42.6287 33.0158 43.9247 28.4963L41.0361 27.6679ZM43.4966 42.7492C44.1751 43.9678 44.5385 44.9946 44.6139 45.956C44.6873 46.8903 44.4977 47.8771 43.8753 49.0397L46.5247 50.458C47.3823 48.856 47.7337 47.2997 47.6098 45.7209C47.4881 44.1694 46.9161 42.7132 46.1221 41.2873L43.4966 42.7492ZM43.8753 49.0398C43.0389 50.6025 41.7209 51.952 40.1878 53.266L42.1435 55.5476C43.7659 54.157 45.4229 52.5165 46.5247 50.458L43.8753 49.0398ZM40.4287 53.0974C39.2217 53.7768 37.9837 54.385 36.7814 54.9065L37.9771 57.6634C39.2691 57.1031 40.6004 56.4492 41.9027 55.7162L40.4287 53.0974ZM36.7805 54.9069C28.1932 58.6376 18.2939 58.9199 9.60451 55.46L8.49283 58.2519C17.9543 62.0192 28.6849 61.7005 37.978 57.6631L36.7805 54.9069ZM9.60255 55.4592C8.48477 55.0159 7.38047 55.1797 6.52319 55.7372C5.71057 56.2656 5.16943 57.1105 4.97424 57.9983L7.90925 58.6436C7.94696 58.472 8.05567 58.3252 8.16148 58.2564C8.20647 58.2272 8.24499 58.2152 8.28003 58.2115C8.31247 58.2081 8.38072 58.2074 8.49479 58.2527L9.60255 55.4592ZM5.05478 57.743C4.84621 58.2436 4.73739 58.8631 4.88569 59.5222L7.81749 58.8626C7.82028 58.875 7.82171 58.8866 7.82219 58.8967C7.82266 58.9067 7.82214 58.9138 7.8217 58.9176C7.82088 58.9248 7.82062 58.9183 7.82871 58.8988L5.05478 57.743ZM4.88594 59.5234C5.35304 61.592 6.25282 63.5481 7.51657 65.2608L9.93467 63.4766C8.91455 62.0941 8.19157 60.5192 7.81724 58.8615L4.88594 59.5234ZM9.84084 63.3618C8.87936 62.2969 7.46826 62.4637 6.66653 62.754C5.80687 63.0652 4.82783 63.7754 4.45382 64.8898L7.30275 65.846C7.29446 65.8707 7.30116 65.8325 7.38241 65.7597C7.46155 65.6889 7.57177 65.6222 7.68946 65.5796C7.74577 65.5592 7.7943 65.5478 7.83138 65.5424C7.86907 65.5369 7.88559 65.539 7.88169 65.5386C7.87227 65.5376 7.73816 65.5171 7.6104 65.3756L9.84084 63.3618ZM4.4556 64.8845C4.12166 65.8675 4.24084 66.7993 4.48694 67.5668C4.72568 68.3114 5.11355 68.9895 5.41881 69.5058L8.0056 67.9764C7.70233 67.4635 7.47415 67.041 7.34852 66.6492C7.23026 66.2804 7.23674 66.0403 7.30097 65.8512L4.4556 64.8845ZM5.4177 69.504C5.91433 70.3467 6.41268 71.1873 6.90985 72.026L9.49483 70.4935C8.99733 69.6543 8.501 68.8171 8.00671 67.9783L5.4177 69.504ZM6.91015 72.0265L6.91128 72.0284L9.49566 70.4949L9.49453 70.493L6.91015 72.0265ZM6.91098 72.0279C7.40887 72.8677 7.90559 73.7056 8.40026 74.545L10.9893 73.0193C10.4923 72.1759 9.99352 71.3347 9.49596 70.4954L6.91098 72.0279ZM10.0278 72.317C8.99783 72.0829 8.09819 72.5198 7.53585 73.0307C6.97722 73.5382 6.52908 74.3077 6.48846 75.177L9.49028 75.3173C9.48822 75.3615 9.47837 75.3659 9.49305 75.3372C9.50706 75.3098 9.53035 75.2788 9.55665 75.2549C9.5836 75.2304 9.5906 75.234 9.56342 75.2431C9.5482 75.2482 9.5219 75.255 9.48567 75.2575C9.44861 75.2599 9.40607 75.2574 9.36177 75.2474L10.0278 72.317ZM6.48682 75.2472V75.2772H9.49192V75.2472H6.48682ZM7.30356 73.9403C6.47226 74.3668 5.71882 75.0609 5.31288 76.0227C4.89624 77.0098 4.90989 78.1289 5.36587 79.2476L8.1487 78.1134C7.95857 77.6469 8.00979 77.3611 8.08147 77.1913C8.16386 76.996 8.34952 76.7812 8.67519 76.6141L7.30356 73.9403ZM5.36584 79.2475C9.23014 88.7298 17.71 95.0534 26.584 98.9223L27.785 96.1677C19.2894 92.4638 11.6018 86.5867 8.14872 78.1134L5.36584 79.2475ZM26.5848 98.9227C35.9819 103.013 46.4622 104.694 56.6902 103.278L56.2782 100.301C46.6425 101.635 36.7181 100.056 27.7841 96.1673L26.5848 98.9227ZM56.69 103.278C65.5612 102.051 76.031 98.3004 83.6271 92.0844C91.2751 85.826 96.1312 76.9295 93.1799 65.6706L90.273 66.4325C92.8437 76.2394 88.7446 84.0137 81.7239 89.7587C74.6514 95.5463 64.7391 99.1314 56.2784 100.301L56.69 103.278ZM93.18 65.6709C92.1699 61.8142 90.0775 58.5192 88.1407 55.4494L85.5991 57.0529C87.5776 60.1887 89.3999 63.0986 90.273 66.4322L93.18 65.6709ZM88.1407 55.4494C87.1723 53.9146 86.2396 52.435 85.428 50.9071L82.7741 52.317C83.6472 53.9604 84.641 55.5343 85.5991 57.0529L88.1407 55.4494ZM85.4277 50.9066C84.9463 50.0013 84.5049 49.0684 84.089 48.1126L81.3334 49.3116C81.774 50.3241 82.2491 51.3296 82.7744 52.3175L85.4277 50.9066ZM84.2118 48.6354C84.1498 47.4231 84.2246 46.1802 84.3627 44.9076L81.3752 44.5832C81.2279 45.9401 81.1374 47.3567 81.2106 48.7889L84.2118 48.6354ZM84.3621 44.9138C84.4425 44.2005 84.5401 43.4844 84.6468 42.7619L81.674 42.3225C81.5641 43.0662 81.4614 43.8185 81.3759 44.577L84.3621 44.9138ZM81.7675 43.1055L81.8305 43.2614L84.6164 42.1348L84.5534 41.9789L81.7675 43.1055ZM83.9515 44.0125L85.753 43.0147L84.297 40.3859L82.4955 41.3837L83.9515 44.0125ZM85.2248 43.1895C85.2998 43.1795 85.3748 43.169 85.4499 43.1582L85.0206 40.1839C84.9558 40.1933 84.8907 40.2023 84.8252 40.2111L85.2248 43.1895ZM85.0184 43.1579C86.1592 43.3242 87.2879 43.4187 88.3659 43.4581L88.4755 40.455C87.4949 40.4192 86.475 40.3334 85.4521 40.1842L85.0184 43.1579ZM88.3709 43.4583C89.6104 43.4993 93.3128 43.62 96.6208 43.0838C98.2529 42.8193 99.9676 42.3693 101.251 41.5475C101.909 41.1266 102.522 40.5651 102.92 39.8142C103.331 39.0395 103.459 38.1659 103.295 37.2458L100.337 37.7722C100.391 38.0766 100.341 38.2631 100.266 38.4054C100.177 38.5717 99.9938 38.7844 99.6312 39.0165C98.8748 39.5007 97.6539 39.872 96.14 40.1174C93.1561 40.6011 89.7251 40.4964 88.4704 40.4548L88.3709 43.4583ZM101.816 36.0064H101.808V39.0115H101.816V36.0064ZM103.287 37.2429C102.994 35.6124 101.672 34.7037 100.66 34.2136C99.5988 33.6998 98.4153 33.421 97.7057 33.2575L97.031 36.186C97.7564 36.353 98.6313 36.5701 99.3505 36.9184C100.119 37.2904 100.3 37.61 100.33 37.775L103.287 37.2429ZM97.7057 33.2576C96.9137 33.0751 96.1369 32.9061 95.382 32.7417L94.7429 35.6781C95.5005 35.843 96.2597 36.0082 97.031 36.1859L97.7057 33.2576ZM95.382 32.7417C92.4294 32.0991 89.821 31.5267 87.2965 30.432L86.101 33.1891C88.9388 34.4196 91.8361 35.0455 94.7429 35.6781L95.382 32.7417ZM88.1413 31.3902C87.5027 29.1991 86.1937 27.5145 84.5976 26.367L82.8434 28.807C83.9319 29.5895 84.8179 30.7271 85.2562 32.231L88.1413 31.3902ZM85.1727 27.2014C83.3152 20.2062 77.5763 15.8738 71.1711 13.8619L70.2706 16.7289C76.0524 18.545 80.7594 22.2901 82.2683 27.9726L85.1727 27.2014ZM71.3022 13.9099C70.1429 13.4235 68.9332 13.0429 67.6907 12.8177L67.1548 15.7747C68.1511 15.9552 69.1502 16.2658 70.1395 16.6809L71.3022 13.9099ZM67.6915 12.8179C67.6066 12.8025 67.5253 12.7922 67.4894 12.7875L67.1007 15.7674C67.1239 15.7704 67.1364 15.772 67.1471 15.7736C67.157 15.775 67.1581 15.7753 67.154 15.7745L67.6915 12.8179ZM67.4814 12.7865L67.4814 12.7865L67.1087 15.7684L67.1087 15.7684L67.4814 12.7865ZM67.4814 12.7865L67.4814 12.7865L67.1086 15.7684L67.1087 15.7684L67.4814 12.7865ZM67.4893 12.7875C67.4662 12.7845 67.4537 12.7828 67.4429 12.7813C67.433 12.7799 67.4319 12.7796 67.4361 12.7803L66.8985 15.737C66.9834 15.7524 67.0647 15.7627 67.1007 15.7674L67.4893 12.7875ZM67.5904 12.8169C66.8361 12.5955 66.0618 12.4223 65.2753 12.3064L64.8372 15.2794C65.4781 15.3738 66.1161 15.5161 66.7442 15.7004L67.5904 12.8169ZM65.2755 12.3064C65.0845 12.2782 64.8939 12.2537 64.7038 12.2329L64.3762 15.2201C64.5294 15.2369 64.683 15.2566 64.8369 15.2793L65.2755 12.3064ZM63.2467 12.9589C63.2412 12.97 63.2353 12.9811 63.2291 12.9921L65.8509 14.4609C65.8799 14.409 65.9078 14.3563 65.9346 14.3029L63.2467 12.9589Z" fill="black" mask="url(#path-1-outside-1_5880_13706)" />
  <path d="M91.721 66.0653C90.3161 60.7012 86.6499 56.4339 84.0956 51.6258C83.5922 50.6791 83.1339 49.71 82.7057 48.7258C82.6381 47.4036 82.7207 46.0738 82.8635 44.7591C83.4269 39.7631 84.7792 34.8498 84.1406 29.7937C83.179 22.1833 77.4843 17.4352 70.7154 15.3091C69.641 14.8584 68.5367 14.5128 67.4173 14.3099C67.3346 14.2949 67.2445 14.2874 67.1618 14.2724C66.4706 14.0695 65.7645 13.9117 65.0507 13.8066C62.7593 13.4685 60.5431 13.7239 58.4095 14.34C51.0244 15.6171 44.6386 20.553 42.4749 28.0958C41.025 33.1519 42.3322 37.5844 44.8039 42.032C46.2764 44.6765 46.6745 46.9979 45.1945 49.7626C44.2254 51.5732 42.7379 53.0682 41.1602 54.4205C39.9056 55.1267 38.6209 55.7578 37.3738 56.2987C28.4336 60.1828 18.1186 60.4833 9.04318 56.8697C7.73596 56.3513 6.66915 57.2753 6.43625 58.3346C6.32356 58.6051 6.27848 58.9056 6.3461 59.2061C6.76681 61.0693 7.57819 62.8348 8.72013 64.3824C8.02144 63.6086 6.24092 64.2847 5.8728 65.3816C5.47462 66.5536 6.09818 67.7256 6.70671 68.7548C7.69839 70.4377 8.69759 72.113 9.68927 73.7959C8.86287 73.6081 8.02144 74.457 7.98388 75.2609C7.98388 75.2684 7.98388 75.2834 7.98388 75.2909C6.82691 75.8844 6.10569 77.109 6.75179 78.6942C10.4105 87.6719 18.4942 93.7723 27.179 97.5587C36.3445 101.548 46.5468 103.178 56.4787 101.803C73.8106 99.4068 97.2429 87.131 91.721 66.0653Z" fill="#FFE36C" />
  <mask id="mask0_5880_13706" style="mask-type:alpha" maskUnits="userSpaceOnUse" x="5" y="13" width="88" height="90">
    <path d="M91.721 66.0653C90.3161 60.7012 86.6499 56.4339 84.0956 51.6258C83.5922 50.6791 83.1339 49.71 82.7057 48.7258C82.6381 47.4036 82.7207 46.0738 82.8635 44.7591C83.4269 39.7631 84.7792 34.8498 84.1406 29.7937C83.179 22.1833 77.4843 17.4352 70.7154 15.3091C69.641 14.8584 68.5367 14.5128 67.4173 14.3099C67.3346 14.2949 67.2445 14.2874 67.1618 14.2724C66.4706 14.0695 65.7645 13.9117 65.0507 13.8066C62.7593 13.4685 60.5431 13.7239 58.4095 14.34C51.0244 15.6171 44.6386 20.553 42.4749 28.0958C41.025 33.1519 42.3322 37.5844 44.8039 42.032C46.2764 44.6765 46.6745 46.9979 45.1945 49.7626C44.2254 51.5732 42.7379 53.0682 41.1602 54.4205C39.9056 55.1267 38.6209 55.7578 37.3738 56.2987C28.4336 60.1828 18.1186 60.4833 9.04318 56.8697C7.73596 56.3513 6.66915 57.2753 6.43625 58.3346C6.32356 58.6051 6.27848 58.9056 6.3461 59.2061C6.76681 61.0693 7.57819 62.8348 8.72013 64.3824C8.02144 63.6086 6.24092 64.2847 5.8728 65.3816C5.47462 66.5536 6.09818 67.7256 6.70671 68.7548C7.69839 70.4377 8.69759 72.113 9.68927 73.7959C8.86287 73.6081 8.02144 74.457 7.98388 75.2609C7.98388 75.2684 7.98388 75.2834 7.98388 75.2909C6.82691 75.8844 6.10569 77.109 6.75179 78.6942C10.4105 87.6719 18.4942 93.7723 27.179 97.5587C36.3445 101.548 46.5468 103.178 56.4787 101.803C73.8106 99.4068 97.2429 87.131 91.721 66.0653Z" fill="#FFE36C" />
  </mask>
  <g mask="url(#mask0_5880_13706)">
    <path d="M80.2422 85.1813C96.411 76.8361 85.9563 60.5859 84.7141 53.1328C95.8938 56.1141 110.055 95.6156 66.8266 112.758C32.2441 126.472 7.45003 87.6656 0.493774 71.7656C13.9094 85.1813 57.1375 97.1063 80.2422 85.1813Z" fill="#E8B84D" />
    <path d="M52.6656 44.9375C44.9144 43.745 42.4797 34.5031 42.2313 30.0312C33.7844 36.9875 16.5925 51.0491 15.4 51.6453C14.2075 52.2416 13.4125 55.3719 13.1641 56.8625C37.7594 67.2969 62.3547 46.4281 52.6656 44.9375Z" fill="#E8B84D" />
  </g>
  <path opacity="0.23" d="M66.9743 75.6071C66.7939 75.0737 66.0276 75.1038 65.7422 75.5019C65.4341 75.9227 65.0961 76.3058 64.743 76.6589C63.849 76.8467 63.0075 77.1097 62.1436 77.4778C61.9031 77.583 61.7829 77.7483 61.7454 77.9361C61.6177 78.0262 61.505 78.1314 61.3923 78.2366C61.3472 78.1765 61.2871 78.1239 61.227 78.0788C61.0993 77.876 60.8664 77.7558 60.5509 77.8309C59.9198 77.9811 59.2887 78.1314 58.6652 78.2892C57.6059 78.4845 56.5616 78.7324 55.5173 79.048C55.3971 79.0855 55.2994 79.1456 55.2168 79.2208C54.7134 79.341 54.2101 79.4612 53.7067 79.5739C52.2868 79.7767 50.8819 80.0246 49.4846 80.3402C49.0563 80.3627 48.6281 80.4003 48.1999 80.4453C46.9453 80.4829 45.6981 80.528 44.4435 80.5655C44.3834 80.3101 44.1881 80.0847 43.85 80.0171C42.1521 79.6941 40.4618 79.4987 38.7263 79.4236C38.7113 79.4236 38.6963 79.4236 38.6888 79.4236C37.8774 79.3184 37.066 79.1982 36.2471 79.078C35.7963 78.9278 35.3531 78.77 34.9023 78.6197C33.242 77.8835 31.6042 77.1022 29.989 76.2682C29.7861 76.1631 29.5983 76.1856 29.433 76.2758C29.3805 76.2457 29.3204 76.2157 29.2678 76.1856C29.1851 76.1405 29.1025 76.118 29.0198 76.118C27.8479 74.8408 26.8562 73.4209 26.1199 71.8357C25.7293 71.0018 24.4371 71.6103 24.8277 72.4442C25.7142 74.345 26.9313 76.0429 28.3888 77.5379C28.4338 77.6506 28.5165 77.7483 28.6367 77.8309C28.6743 77.8534 28.7118 77.876 28.7569 77.906C33.8205 82.8644 41.5211 85.539 48.2074 86.2527C54.3904 86.9138 70.3325 85.6667 66.9818 75.5996L66.9743 75.6071Z" fill="#E8B84D" />
  <path d="M101.803 37.5214C101.48 35.7259 98.7981 35.0648 97.3632 34.7342C92.863 33.6975 88.8137 33.0889 84.8695 30.9328C84.6065 30.7149 84.3436 30.4745 84.0806 30.2266C83.9229 30.2341 83.7651 30.2566 83.6374 30.3167C83.0589 30.6022 82.6457 31.5488 82.4128 32.0972C81.6615 33.8928 82.4255 34.8131 82.4781 36.7364C82.5232 38.4418 82.2092 40.9698 83.2234 41.969C83.9672 41.9239 84.7307 42.0742 85.4594 41.969C86.5412 42.1268 87.3862 41.9314 88.4155 41.969C90.9097 42.0516 102.682 42.4198 101.811 37.5214H101.803Z" fill="#FF9900" />
  <path d="M86.95 35.9938C87.5638 31.4609 85.4815 28.4447 82.7848 27.0091C81.9218 26.5496 80.9868 27.265 80.9888 28.2427C81.0028 35.0163 81.1725 37.653 83.2235 42.7016L94.4031 36.5097L86.95 35.9938Z" fill="#FF9900" />
  <path d="M65.855 74.9325C59.9425 77.8625 53.4365 79.365 46.8403 79.3199C40.7099 79.2749 33.3999 78.0578 28.156 74.662C25.9398 73.2196 24.6476 70.0868 27.5099 68.5617C28.7345 67.9081 30.1995 67.7804 31.5518 67.585C33.6704 67.2845 35.7439 66.8488 37.7799 66.2177C45.0222 70.1243 53.6243 70.2821 61.0243 66.6985C61.8507 66.3003 61.0995 65.0833 60.2731 65.4815C53.7445 68.6443 46.1716 68.6293 39.6581 65.5716C39.7407 65.5416 39.8233 65.5115 39.8985 65.4815C45.0597 63.4906 49.65 60.3502 53.444 56.3309C54.075 55.6623 53.0458 54.6706 52.4147 55.3392C46.8403 61.2443 39.5529 65.0006 31.5218 66.1501C29.3355 66.4656 26.6535 66.691 25.1735 68.5692C23.5733 70.6052 24.4297 73.3022 26.1727 74.94C28.4115 77.0436 31.9124 78.0879 34.8048 78.9518C38.2006 79.966 41.7241 80.537 45.2626 80.6948C52.6551 81.0328 59.9876 79.4251 66.6063 76.1345C67.4327 75.7288 66.6814 74.5118 65.855 74.9175V74.9325Z" fill="black" />
  <path d="M74.4842 40.0794C76.3494 39.4595 77.6678 37.9177 78.3239 36.003C78.9798 34.089 78.9901 31.77 78.2324 29.4902C77.4746 27.2103 76.0782 25.3589 74.4069 24.2183C72.7352 23.0774 70.7562 22.6316 68.8909 23.2516C67.0257 23.8716 65.7073 25.4133 65.0512 27.328C64.3953 29.2421 64.385 31.561 65.1427 33.8409C65.9005 36.1207 67.2969 37.9721 68.9682 39.1127C70.6399 40.2536 72.6189 40.6994 74.4842 40.0794Z" fill="white" stroke="black" stroke-width="1.1925" />
  <path d="M72.7894 29.2593V29.2511L72.7892 29.2429C72.7821 28.9166 73.0625 28.5738 73.5461 28.5433C73.9073 28.5205 74.2667 28.8655 74.2794 29.208V29.3157V29.3239L74.2795 29.3321C74.2867 29.6584 74.0063 30.0012 73.5226 30.0317C73.1614 30.0545 72.8021 29.7095 72.7894 29.367V29.2593Z" fill="white" stroke="black" stroke-width="1.49063" />
  <path d="M85.6891 32.9545L85.6891 32.9545L85.6912 32.9573C85.8703 33.198 85.9947 33.4787 86.0368 33.7347C86.0738 33.9599 86.0636 34.311 85.7688 34.4822C85.5251 34.6237 85.2401 34.57 85.0176 34.4639C84.7852 34.3531 84.5571 34.1591 84.3682 33.9062L84.3195 33.8424L84.3195 33.8424L84.3174 33.8396C84.1382 33.5989 84.0139 33.3182 83.9718 33.0621C83.9347 32.8369 83.9449 32.4859 84.2397 32.3147C84.4835 32.1731 84.7685 32.2269 84.9909 32.3329C85.2233 32.4437 85.4515 32.6377 85.6403 32.8906L85.6891 32.9545Z" fill="#FFB000" stroke="#743C09" stroke-width="0.59625" />
</svg>