<svg viewBox="0 0 35 36" fill="none" xmlns="http://www.w3.org/2000/svg">
  <g id="Duck/Daredevil">
    <g id="Group 427321986">
      <path id="Vector 2721" d="M20.2519 1.375C22.1796 2.5798 22.7419 4.66812 22.4206 5.71228C22.0351 6.09782 20.4929 5.63196 20.011 5.47132C21.1676 4.50748 20.6535 2.33884 20.2519 1.375Z" fill="#840707" stroke="black" stroke-width="0.48192" />
      <g id="Union">
        <mask id="path-2-outside-1_5729_149035" maskUnits="userSpaceOnUse" x="1.67542" y="4.96094" width="33" height="31" fill="black">
          <rect fill="white" x="1.67542" y="4.96094" width="33" height="31" />
          <path fill-rule="evenodd" clip-rule="evenodd" d="M30.4708 22.9048C30.1664 21.7425 29.5335 20.7395 28.9006 19.7363L28.9006 19.7363C28.5892 19.2427 28.2778 18.7491 28.0055 18.2365C27.8427 17.9305 27.6946 17.6171 27.5561 17.299C27.5343 16.8715 27.561 16.4416 27.6071 16.0165C27.634 15.7786 27.6663 15.5412 27.7014 15.3042C27.7081 15.3209 27.7149 15.3377 27.7217 15.3546L28.3042 15.032C28.3269 15.029 28.3495 15.0258 28.3721 15.0226C28.7219 15.0736 29.0692 15.1027 29.402 15.1149C30.2084 15.1416 34.0144 15.2606 33.7327 13.677H33.7302C33.6258 13.0965 32.7587 12.8827 32.2948 12.7759C32.0421 12.7176 31.7938 12.6636 31.5493 12.6104C30.6021 12.4042 29.7121 12.2105 28.8453 11.8347C28.6712 11.2374 28.3164 10.7812 27.8824 10.4692C27.3383 8.41983 25.6497 7.11409 23.6796 6.49531C23.3323 6.34958 22.9753 6.23785 22.6133 6.17227C22.6 6.16984 22.586 6.16802 22.5721 6.1662L22.5721 6.1662L22.572 6.1662C22.5581 6.16438 22.5441 6.16255 22.5308 6.16013C22.3073 6.09455 22.079 6.04354 21.8483 6.00954C21.1074 5.90024 20.3909 5.98282 19.7011 6.18199C17.3135 6.5949 15.249 8.19067 14.5495 10.6293C14.0807 12.2639 14.5033 13.6969 15.3024 15.1348C15.7785 15.9898 15.9072 16.7403 15.4287 17.6341C15.1154 18.2195 14.6345 18.7029 14.1244 19.14C13.7188 19.3684 13.3035 19.5724 12.9003 19.7473C10.0099 21.003 6.67505 21.1002 3.74097 19.9319C3.31834 19.7643 2.97344 20.063 2.89815 20.4055C2.86172 20.4929 2.84714 20.5901 2.869 20.6872C3.00502 21.2896 3.26734 21.8604 3.63653 22.3607C3.41064 22.1106 2.835 22.3292 2.71598 22.6838C2.58725 23.0627 2.78885 23.4416 2.98559 23.7743C3.14588 24.0464 3.30679 24.3178 3.46769 24.5892L3.46772 24.5892C3.62863 24.8607 3.78955 25.1321 3.94985 25.4041C3.68268 25.3434 3.41064 25.6179 3.3985 25.8778V25.8875C3.02445 26.0794 2.79128 26.4753 3.00016 26.9878C4.18303 29.8903 6.7965 31.8625 9.60428 33.0867C12.5675 34.3764 15.8659 34.9035 19.0769 34.459C24.6803 33.6842 32.256 29.7154 30.4708 22.9048Z" />
        </mask>
        <path fill-rule="evenodd" clip-rule="evenodd" d="M30.4708 22.9048C30.1664 21.7425 29.5335 20.7395 28.9006 19.7363L28.9006 19.7363C28.5892 19.2427 28.2778 18.7491 28.0055 18.2365C27.8427 17.9305 27.6946 17.6171 27.5561 17.299C27.5343 16.8715 27.561 16.4416 27.6071 16.0165C27.634 15.7786 27.6663 15.5412 27.7014 15.3042C27.7081 15.3209 27.7149 15.3377 27.7217 15.3546L28.3042 15.032C28.3269 15.029 28.3495 15.0258 28.3721 15.0226C28.7219 15.0736 29.0692 15.1027 29.402 15.1149C30.2084 15.1416 34.0144 15.2606 33.7327 13.677H33.7302C33.6258 13.0965 32.7587 12.8827 32.2948 12.7759C32.0421 12.7176 31.7938 12.6636 31.5493 12.6104C30.6021 12.4042 29.7121 12.2105 28.8453 11.8347C28.6712 11.2374 28.3164 10.7812 27.8824 10.4692C27.3383 8.41983 25.6497 7.11409 23.6796 6.49531C23.3323 6.34958 22.9753 6.23785 22.6133 6.17227C22.6 6.16984 22.586 6.16802 22.5721 6.1662L22.5721 6.1662L22.572 6.1662C22.5581 6.16438 22.5441 6.16255 22.5308 6.16013C22.3073 6.09455 22.079 6.04354 21.8483 6.00954C21.1074 5.90024 20.3909 5.98282 19.7011 6.18199C17.3135 6.5949 15.249 8.19067 14.5495 10.6293C14.0807 12.2639 14.5033 13.6969 15.3024 15.1348C15.7785 15.9898 15.9072 16.7403 15.4287 17.6341C15.1154 18.2195 14.6345 18.7029 14.1244 19.14C13.7188 19.3684 13.3035 19.5724 12.9003 19.7473C10.0099 21.003 6.67505 21.1002 3.74097 19.9319C3.31834 19.7643 2.97344 20.063 2.89815 20.4055C2.86172 20.4929 2.84714 20.5901 2.869 20.6872C3.00502 21.2896 3.26734 21.8604 3.63653 22.3607C3.41064 22.1106 2.835 22.3292 2.71598 22.6838C2.58725 23.0627 2.78885 23.4416 2.98559 23.7743C3.14588 24.0464 3.30679 24.3178 3.46769 24.5892L3.46772 24.5892C3.62863 24.8607 3.78955 25.1321 3.94985 25.4041C3.68268 25.3434 3.41064 25.6179 3.3985 25.8778V25.8875C3.02445 26.0794 2.79128 26.4753 3.00016 26.9878C4.18303 29.8903 6.7965 31.8625 9.60428 33.0867C12.5675 34.3764 15.8659 34.9035 19.0769 34.459C24.6803 33.6842 32.256 29.7154 30.4708 22.9048Z" fill="#9B9B9B" />
        <path d="M28.9006 19.7363L28.4873 19.9843L28.493 19.9935L28.9006 19.7363ZM30.4708 22.9048L30.0046 23.0269L30.0046 23.027L30.4708 22.9048ZM28.9006 19.7363L29.314 19.4883L29.3082 19.4792L28.9006 19.7363ZM28.0055 18.2365L28.431 18.0104L28.431 18.0102L28.0055 18.2365ZM27.5561 17.299L27.0748 17.3236L27.0793 17.411L27.1142 17.4912L27.5561 17.299ZM27.6071 16.0165L27.1282 15.9625L27.128 15.9645L27.6071 16.0165ZM27.7014 15.3042L28.1484 15.1243L27.4846 13.4749L27.2246 15.2338L27.7014 15.3042ZM27.7217 15.3546L27.2752 15.536L27.4798 16.0395L27.9552 15.7762L27.7217 15.3546ZM28.3042 15.032L28.2401 14.5544L28.1501 14.5665L28.0707 14.6105L28.3042 15.032ZM28.3721 15.0226L28.4417 14.5457L28.3725 14.5356L28.3033 14.5456L28.3721 15.0226ZM29.402 15.1149L29.3844 15.5965L29.386 15.5965L29.402 15.1149ZM33.7327 13.677L34.2071 13.5926L34.1364 13.1951H33.7327V13.677ZM33.7302 13.677L33.2559 13.7623L33.3273 14.1589H33.7302V13.677ZM32.2948 12.7759L32.1866 13.2455L32.1866 13.2455L32.2948 12.7759ZM31.5493 12.6104L31.4468 13.0813L31.5493 12.6104ZM28.8453 11.8347L28.3826 11.9695L28.4459 12.1868L28.6536 12.2768L28.8453 11.8347ZM27.8824 10.4692L27.4166 10.5929L27.461 10.7597L27.6011 10.8605L27.8824 10.4692ZM23.6796 6.49531L23.4932 6.9397L23.5138 6.94837L23.5352 6.95509L23.6796 6.49531ZM22.6133 6.17227L22.5271 6.64642L22.5274 6.64647L22.6133 6.17227ZM22.5721 6.1662L22.6344 5.68831L22.6306 5.68785L22.5721 6.1662ZM22.572 6.1662L22.5097 6.64408L22.5135 6.64455L22.572 6.1662ZM22.5308 6.16013L22.3951 6.62254L22.4195 6.62972L22.4446 6.63427L22.5308 6.16013ZM21.8483 6.00954L21.7779 6.48629L21.778 6.48631L21.8483 6.00954ZM19.7011 6.18199L19.7832 6.65686L19.8094 6.65234L19.8348 6.64499L19.7011 6.18199ZM14.5495 10.6293L14.0862 10.4964L14.0862 10.4964L14.5495 10.6293ZM15.3024 15.1348L14.8812 15.3689L14.8814 15.3693L15.3024 15.1348ZM15.4287 17.6341L15.0039 17.4067L15.0038 17.4067L15.4287 17.6341ZM14.1244 19.14L14.3608 19.56L14.4021 19.5368L14.4381 19.5059L14.1244 19.14ZM12.9003 19.7473L12.7085 19.3051L12.7082 19.3053L12.9003 19.7473ZM3.74097 19.9319L3.91925 19.4841L3.91862 19.4839L3.74097 19.9319ZM2.89815 20.4055L3.343 20.5908L3.35957 20.5511L3.36883 20.509L2.89815 20.4055ZM2.869 20.6872L2.39884 20.793L2.39892 20.7934L2.869 20.6872ZM3.63653 22.3607L3.27884 22.6837L4.02431 22.0746L3.63653 22.3607ZM2.71598 22.6838L3.17229 22.8388L3.17286 22.8371L2.71598 22.6838ZM2.98559 23.7743L3.40078 23.5297L3.40043 23.5291L2.98559 23.7743ZM3.46769 24.5892L3.88525 24.3485L3.88224 24.3434L3.46769 24.5892ZM3.46772 24.5892L3.05016 24.8299L3.05317 24.835L3.46772 24.5892ZM3.94985 25.4041L3.84305 25.8741L4.93199 26.1215L4.36505 25.1595L3.94985 25.4041ZM3.3985 25.8778L2.9171 25.8553L2.91658 25.8665V25.8778H3.3985ZM3.3985 25.8875L3.61846 26.3163L3.88042 26.1819V25.8875H3.3985ZM3.00016 26.9878L3.44645 26.8059L3.44644 26.8059L3.00016 26.9878ZM9.60428 33.0867L9.41168 33.5284L9.41195 33.5285L9.60428 33.0867ZM19.0769 34.459L19.0109 33.9816L19.0108 33.9816L19.0769 34.459ZM28.493 19.9935C29.1326 21.0072 29.7221 21.9485 30.0046 23.0269L30.937 22.7827C30.6106 21.5365 29.9344 20.4717 29.3082 19.4792L28.493 19.9935ZM28.4874 19.9842L28.4874 19.9843L29.3139 19.4884L29.3139 19.4884L28.4874 19.9842ZM27.5799 18.4626C27.862 18.9937 28.1833 19.5025 28.493 19.9935L29.3082 19.4792C28.9951 18.983 28.6935 18.5045 28.431 18.0104L27.5799 18.4626ZM27.1142 17.4912C27.2566 17.8185 27.4102 18.1435 27.58 18.4628L28.431 18.0102C28.2753 17.7174 28.1325 17.4158 27.998 17.1067L27.1142 17.4912ZM27.128 15.9645C27.0804 16.4031 27.0512 16.8608 27.0748 17.3236L28.0374 17.2743C28.0173 16.8821 28.0415 16.4801 28.0862 16.0685L27.128 15.9645ZM27.2246 15.2338C27.1891 15.4742 27.1559 15.7173 27.1282 15.9625L28.086 16.0705C28.112 15.8398 28.1436 15.6083 28.1781 15.3747L27.2246 15.2338ZM27.2543 15.4841C27.2612 15.5013 27.2682 15.5186 27.2752 15.536L28.1682 15.1732C28.1616 15.1569 28.155 15.1405 28.1484 15.1243L27.2543 15.4841ZM27.9552 15.7762L28.5377 15.4536L28.0707 14.6105L27.4882 14.933L27.9552 15.7762ZM28.3033 14.5456C28.2823 14.5486 28.2612 14.5516 28.2401 14.5544L28.3682 15.5097C28.3925 15.5064 28.4168 15.503 28.441 15.4996L28.3033 14.5456ZM29.4196 14.6333C29.1024 14.6217 28.7726 14.5939 28.4417 14.5457L28.3026 15.4994C28.6713 15.5532 29.036 15.5838 29.3844 15.5965L29.4196 14.6333ZM33.2582 13.7614C33.2759 13.8606 33.2597 13.9218 33.2349 13.9686C33.206 14.0231 33.1461 14.0923 33.0284 14.1676C32.7832 14.3246 32.3879 14.4447 31.8983 14.5241C30.9332 14.6805 29.8236 14.6467 29.4179 14.6332L29.386 15.5965C29.7868 15.6098 30.9834 15.6488 32.0525 15.4755C32.58 15.39 33.1337 15.2446 33.5481 14.9794C33.7603 14.8435 33.9578 14.6625 34.0862 14.4205C34.2187 14.1708 34.2599 13.8892 34.2071 13.5926L33.2582 13.7614ZM33.7302 14.1589H33.7327V13.1951H33.7302V14.1589ZM32.1866 13.2455C32.4211 13.2995 32.7043 13.3698 32.9373 13.4826C33.186 13.603 33.246 13.7071 33.2559 13.7623L34.2046 13.5916C34.11 13.0664 33.6842 12.7733 33.3573 12.6151C33.0147 12.4491 32.6324 12.3591 32.403 12.3062L32.1866 13.2455ZM31.4468 13.0813C31.6917 13.1346 31.9372 13.188 32.1866 13.2455L32.403 12.3062C32.147 12.2473 31.8958 12.1926 31.6518 12.1395L31.4468 13.0813ZM28.6536 12.2768C29.5706 12.6745 30.507 12.8767 31.4468 13.0813L31.6518 12.1395C30.6972 11.9317 29.8536 11.7466 29.037 11.3925L28.6536 12.2768ZM29.308 11.6998C29.1018 10.9923 28.6791 10.4484 28.1637 10.0779L27.6011 10.8605C27.9537 11.114 28.2407 11.4824 28.3826 11.9695L29.308 11.6998ZM23.5352 6.95509C25.4053 7.54247 26.9284 8.75402 27.4166 10.5929L28.3482 10.3455C27.7481 8.08564 25.8941 6.68572 23.824 6.03554L23.5352 6.95509ZM22.5274 6.64647C22.8498 6.70489 23.1731 6.8054 23.4932 6.9397L23.8661 6.05092C23.4915 5.89375 23.1007 5.77081 22.6993 5.69807L22.5274 6.64647ZM22.5097 6.64407C22.5172 6.64505 22.5213 6.64558 22.5248 6.64608C22.528 6.64655 22.5284 6.64665 22.5271 6.64642L22.6996 5.69812C22.6722 5.69315 22.646 5.68985 22.6344 5.68833L22.5097 6.64407ZM22.5135 6.64455L22.5135 6.64455L22.6306 5.68785L22.6306 5.68785L22.5135 6.64455ZM22.5135 6.64455L22.5135 6.64455L22.6306 5.68785L22.6306 5.68785L22.5135 6.64455ZM22.4446 6.63427C22.4719 6.63924 22.4981 6.64255 22.5097 6.64407L22.6344 5.68832C22.6269 5.68735 22.6228 5.68681 22.6193 5.68631C22.6161 5.68585 22.6157 5.68575 22.617 5.68598L22.4446 6.63427ZM21.778 6.48631C21.9854 6.51687 22.1918 6.56291 22.3951 6.62254L22.6665 5.69771C22.4228 5.62619 22.1726 5.57021 21.9185 5.53277L21.778 6.48631ZM19.8348 6.64499C20.4726 6.46083 21.1186 6.38902 21.7779 6.48629L21.9186 5.53278C21.0963 5.41145 20.3092 5.50481 19.5674 5.71898L19.8348 6.64499ZM15.0127 10.7621C15.6543 8.52544 17.5515 7.04281 19.7832 6.65686L19.619 5.70712C17.0756 6.14698 14.8437 7.8559 14.0862 10.4964L15.0127 10.7621ZM15.7237 14.9007C14.9566 13.5204 14.5933 12.2246 15.0127 10.7621L14.0862 10.4964C13.5681 12.3032 14.0501 13.8735 14.8812 15.3689L15.7237 14.9007ZM15.8536 17.8616C16.1306 17.3442 16.244 16.8418 16.204 16.3322C16.1647 15.8314 15.98 15.3611 15.7235 14.9004L14.8814 15.3693C15.1009 15.7635 15.2186 16.096 15.2431 16.4076C15.2669 16.7105 15.2054 17.0303 15.0039 17.4067L15.8536 17.8616ZM14.4381 19.5059C14.9624 19.0565 15.4977 18.5264 15.8536 17.8616L15.0038 17.4067C14.7331 17.9126 14.3065 18.3492 13.8108 18.7741L14.4381 19.5059ZM13.092 20.1894C13.5096 20.0083 13.9399 19.7969 14.3608 19.56L13.888 18.7201C13.4977 18.9398 13.0973 19.1365 12.7085 19.3051L13.092 20.1894ZM3.56269 20.3796C6.62059 21.5972 10.0888 21.4942 13.0923 20.1893L12.7082 19.3053C9.93105 20.5118 6.72951 20.6031 3.91925 19.4841L3.56269 20.3796ZM3.36883 20.509C3.38122 20.4526 3.41692 20.4042 3.45204 20.3814C3.46706 20.3716 3.48009 20.3675 3.49206 20.3663C3.50321 20.3651 3.5259 20.365 3.56332 20.3798L3.91862 19.4839C3.55843 19.341 3.20272 19.3938 2.92658 19.5734C2.66477 19.7437 2.49037 20.0159 2.42747 20.302L3.36883 20.509ZM3.33917 20.5815C3.34098 20.5895 3.34074 20.5956 3.34046 20.598C3.34024 20.5999 3.34026 20.5974 3.343 20.5908L2.4533 20.2201C2.38612 20.3814 2.3511 20.5809 2.39884 20.793L3.33917 20.5815ZM4.02431 22.0746C3.69419 21.6272 3.46023 21.1176 3.33909 20.5811L2.39892 20.7934C2.54981 21.4616 2.84048 22.0936 3.24874 22.6469L4.02431 22.0746ZM3.17286 22.8371C3.17043 22.8443 3.17305 22.8314 3.1997 22.8076C3.22567 22.7843 3.26173 22.7625 3.30022 22.7486C3.31865 22.7419 3.3346 22.7382 3.34686 22.7364C3.35932 22.7346 3.36499 22.7352 3.36408 22.7351C3.36176 22.7349 3.31937 22.7286 3.27884 22.6837L3.99422 22.0378C3.68494 21.6952 3.23076 21.7487 2.97214 21.8423C2.69493 21.9427 2.37954 22.1716 2.25911 22.5304L3.17286 22.8371ZM3.40043 23.5291C3.30237 23.3632 3.2284 23.2263 3.18764 23.0992C3.14924 22.9795 3.15117 22.901 3.17229 22.8388L2.25968 22.5288C2.15206 22.8455 2.19043 23.1459 2.26983 23.3935C2.34687 23.6338 2.47206 23.8527 2.57075 24.0196L3.40043 23.5291ZM3.88224 24.3434C3.72128 24.0719 3.5607 23.8011 3.40078 23.5297L2.5704 24.019C2.73107 24.2917 2.8923 24.5636 3.05314 24.8349L3.88224 24.3434ZM3.88525 24.3486L3.88522 24.3485L3.05016 24.8298L3.05019 24.8299L3.88525 24.3486ZM4.36505 25.1595C4.20436 24.8868 4.04313 24.6148 3.88227 24.3435L3.05317 24.835C3.21414 25.1065 3.37473 25.3774 3.53466 25.6488L4.36505 25.1595ZM3.87989 25.9003C3.87925 25.9139 3.87625 25.9148 3.8812 25.9051C3.88595 25.8958 3.89376 25.8854 3.90261 25.8774C3.91166 25.8692 3.91438 25.87 3.90616 25.8728C3.90153 25.8744 3.89335 25.8765 3.88199 25.8772C3.87037 25.878 3.85699 25.8772 3.84305 25.8741L4.05666 24.9342C3.72526 24.8589 3.43565 24.9994 3.25447 25.164C3.07448 25.3276 2.93018 25.5754 2.9171 25.8553L3.87989 25.9003ZM3.88042 25.8875V25.8778H2.91658V25.8875H3.88042ZM3.44644 26.8059C3.38463 26.6542 3.40111 26.5607 3.42472 26.5048C3.45177 26.4407 3.51252 26.3706 3.61846 26.3163L3.17853 25.4587C2.91042 25.5962 2.66756 25.82 2.53674 26.13C2.40248 26.4481 2.40681 26.8088 2.55389 27.1696L3.44644 26.8059ZM9.79688 32.6449C7.04979 31.4472 4.56337 29.5466 3.44645 26.8059L2.55388 27.1696C3.80268 30.2339 6.5432 32.2778 9.41168 33.5284L9.79688 32.6449ZM19.0108 33.9816C15.8948 34.4129 12.6856 33.9022 9.79661 32.6448L9.41195 33.5285C12.4495 34.8506 15.837 35.394 19.143 34.9363L19.0108 33.9816ZM30.0046 23.027C30.8362 26.1994 29.51 28.7143 27.2394 30.5723C24.9522 32.444 21.7468 33.6033 19.0109 33.9816L19.1429 34.9364C22.0105 34.5399 25.3946 33.3273 27.8498 31.3183C30.3216 29.2956 31.8906 26.4208 30.9369 22.7826L30.0046 23.027Z" fill="black" mask="url(#path-2-outside-1_5729_149035)" />
      </g>
      <path id="Union_2" fill-rule="evenodd" clip-rule="evenodd" d="M30.4708 22.9048C30.1664 21.7425 29.5335 20.7395 28.9006 19.7363L28.9006 19.7363C28.5892 19.2427 28.2778 18.7491 28.0055 18.2365C27.8427 17.9305 27.6946 17.6171 27.5561 17.299C27.5343 16.8715 27.561 16.4416 27.6071 16.0165C27.634 15.7786 27.6663 15.5412 27.7014 15.3042C27.7081 15.3209 27.7149 15.3377 27.7217 15.3546L28.3042 15.032C28.3269 15.029 28.3495 15.0258 28.3721 15.0226C28.7219 15.0736 29.0692 15.1027 29.402 15.1149C30.2084 15.1416 34.0144 15.2606 33.7327 13.677H33.7302C33.6258 13.0965 32.7587 12.8827 32.2948 12.7759C32.0421 12.7176 31.7938 12.6636 31.5493 12.6104C30.6021 12.4042 29.7121 12.2105 28.8453 11.8347C28.6712 11.2374 28.3164 10.7812 27.8824 10.4692C27.3383 8.41983 25.6497 7.11409 23.6796 6.49531C23.3323 6.34958 22.9753 6.23785 22.6133 6.17227C22.6 6.16984 22.586 6.16802 22.5721 6.1662L22.5721 6.1662L22.572 6.1662C22.5581 6.16438 22.5441 6.16255 22.5308 6.16013C22.3073 6.09455 22.079 6.04354 21.8483 6.00954C21.1074 5.90024 20.3909 5.98282 19.7011 6.18199C17.3135 6.5949 15.249 8.19067 14.5495 10.6293C14.0807 12.2639 14.5033 13.6969 15.3024 15.1348C15.7785 15.9898 15.9072 16.7403 15.4287 17.6341C15.1154 18.2195 14.6345 18.7029 14.1244 19.14C13.7188 19.3684 13.3035 19.5724 12.9003 19.7473C10.0099 21.003 6.67505 21.1002 3.74097 19.9319C3.31834 19.7643 2.97344 20.063 2.89815 20.4055C2.86172 20.4929 2.84714 20.5901 2.869 20.6872C3.00502 21.2896 3.26734 21.8604 3.63653 22.3607C3.41064 22.1106 2.835 22.3292 2.71598 22.6838C2.58725 23.0627 2.78885 23.4416 2.98559 23.7743C3.14588 24.0464 3.30679 24.3178 3.46769 24.5892L3.46772 24.5892C3.62863 24.8607 3.78955 25.1321 3.94985 25.4041C3.68268 25.3434 3.41064 25.6179 3.3985 25.8778V25.8875C3.02445 26.0794 2.79128 26.4753 3.00016 26.9878C4.18303 29.8903 6.7965 31.8625 9.60428 33.0867C12.5675 34.3764 15.8659 34.9035 19.0769 34.459C24.6803 33.6842 32.256 29.7154 30.4708 22.9048Z" fill="#9B9B9B" />
      <g id="Group 427321975" opacity="0.5">
        <mask id="mask0_5729_149035" style="mask-type:alpha" maskUnits="userSpaceOnUse" x="2" y="5" width="29" height="30">
          <g id="Vector" style="mix-blend-mode:overlay">
            <path d="M30.4689 22.9048C30.0147 21.1706 28.8294 19.791 28.0036 18.2365C27.8409 17.9305 27.6927 17.6171 27.5543 17.299C27.5324 16.8715 27.5591 16.4416 27.6053 16.0165C27.7875 14.4013 28.2247 12.8128 28.0182 11.1782C27.7073 8.71773 25.8662 7.18268 23.6778 6.49531C23.3305 6.34958 22.9734 6.23785 22.6115 6.17227C22.5848 6.16741 22.5557 6.16498 22.5289 6.16013C22.3055 6.09455 22.0772 6.04354 21.8464 6.00954C21.1056 5.90024 20.3891 5.98282 19.6993 6.18199C17.3117 6.5949 15.2472 8.19067 14.5476 10.6293C14.0789 12.2639 14.5015 13.6969 15.3006 15.1348C15.7767 15.9898 15.9054 16.7403 15.4269 17.6341C15.1136 18.2195 14.6327 18.7028 14.1226 19.14C13.717 19.3684 13.3016 19.5724 12.8984 19.7473C10.0081 21.003 6.67322 21.1002 3.73914 19.9319C3.31651 19.7643 2.97161 20.063 2.89632 20.4055C2.85988 20.4929 2.84531 20.5901 2.86717 20.6872C3.00319 21.2896 3.26551 21.8604 3.6347 22.3607C3.40881 22.1106 2.83317 22.3292 2.71415 22.6838C2.58542 23.0627 2.78702 23.4416 2.98376 23.7743C3.30437 24.3184 3.62741 24.8601 3.94802 25.4041C3.68085 25.3434 3.40881 25.6179 3.39667 25.8778C3.39667 25.8802 3.39667 25.885 3.39667 25.8875C3.02262 26.0794 2.78945 26.4753 2.99833 26.9878C4.18119 29.8903 6.79467 31.8625 9.60245 33.0867C12.5657 34.3764 15.8641 34.9035 19.0751 34.459C24.6785 33.6842 32.2542 29.7154 30.4689 22.9048Z" fill="#4E2478" />
          </g>
        </mask>
        <g mask="url(#mask0_5729_149035)">
          <g id="Vector 2701" style="mix-blend-mode:multiply">
            <path d="M26.7578 29.0878C31.9852 26.3898 28.6052 21.1362 28.2036 18.7266C31.818 19.6904 36.3962 32.4613 22.4205 38.0034C11.24 42.437 3.22406 29.891 0.975098 24.7506C5.31238 29.0878 19.2881 32.9432 26.7578 29.0878Z" fill="#9B9B9B" />
          </g>
          <g id="Vector 2702" style="mix-blend-mode:multiply">
            <path d="M17.8423 16.077C15.3363 15.6915 14.5492 12.7036 14.4689 11.2578C11.738 13.5068 6.17983 18.0529 5.79429 18.2457C5.40876 18.4384 5.15173 19.4505 5.07141 19.9324C13.0231 23.3058 20.9748 16.5589 17.8423 16.077Z" fill="#9B9B9B" />
          </g>
        </g>
      </g>
      <path id="Vector 2720" d="M14.4689 14.3868C17.3604 15.7362 23.6253 15.5916 27.9626 15.3507C30.0831 6.48335 24.3481 5.71228 20.9747 4.9894C20.7819 3.44726 18.8061 1.61596 16.3965 1.375C18.8061 3.30268 18.3242 4.26652 17.3604 5.47132C12.9267 6.8207 13.8263 12.4592 14.4689 14.3868Z" fill="#CD1818" stroke="black" stroke-width="0.48192" />
      <path id="Vector_2" opacity="0.23" d="M22.4682 25.9887C22.4099 25.8162 22.1622 25.8259 22.0699 25.9547C21.9703 26.0907 21.861 26.2146 21.7469 26.3287C21.4578 26.3894 21.1858 26.4744 20.9065 26.5935C20.8287 26.6275 20.7899 26.6809 20.7777 26.7416C20.7365 26.7708 20.7 26.8048 20.6636 26.8388C20.649 26.8193 20.6296 26.8023 20.6101 26.7878C20.5689 26.7222 20.4936 26.6833 20.3916 26.7076C20.1875 26.7562 19.9835 26.8048 19.7819 26.8558C19.4394 26.9189 19.1018 26.9991 18.7642 27.1011C18.7253 27.1132 18.6938 27.1327 18.667 27.157C18.5043 27.1958 18.3416 27.2347 18.1788 27.2711C17.7198 27.3367 17.2656 27.4168 16.8138 27.5189C16.6754 27.5261 16.5369 27.5383 16.3985 27.5529C15.9929 27.565 15.5897 27.5796 15.184 27.5917C15.1646 27.5091 15.1015 27.4363 14.9922 27.4144C14.4432 27.31 13.8967 27.2468 13.3357 27.2225C13.3308 27.2225 13.3259 27.2225 13.3235 27.2225C13.0612 27.1885 12.7989 27.1497 12.5341 27.1108C12.3884 27.0622 12.2451 27.0112 12.0994 26.9626C11.5626 26.7246 11.0331 26.472 10.5109 26.2024C10.4453 26.1684 10.3846 26.1757 10.3311 26.2048C10.3141 26.1951 10.2947 26.1854 10.2777 26.1757C10.251 26.1611 10.2243 26.1538 10.1976 26.1538C9.81865 25.7409 9.49803 25.2819 9.26 24.7694C9.1337 24.4998 8.71593 24.6965 8.84224 24.9661C9.12884 25.5806 9.52232 26.1295 9.99352 26.6129C10.0081 26.6493 10.0348 26.6809 10.0737 26.7076C10.0858 26.7149 10.098 26.7222 10.1125 26.7319C11.7496 28.335 14.2392 29.1996 16.4009 29.4304C18.3999 29.6441 23.5539 29.2409 22.4707 25.9862L22.4682 25.9887Z" fill="#9B9B9B" />
      <path id="Vector_3" d="M33.7285 13.6788C33.6241 13.0983 32.7569 12.8845 32.293 12.7776C30.8381 12.4425 29.529 12.2457 28.2538 11.5486C28.1688 11.4782 28.0838 11.4005 27.9988 11.3203C27.9478 11.3227 27.8968 11.33 27.8555 11.3495C27.6684 11.4418 27.5349 11.7478 27.4596 11.9251C27.2167 12.5056 27.4637 12.8032 27.4807 13.4249C27.4953 13.9763 27.3937 14.7936 27.7216 15.1166C27.9621 15.1021 28.2089 15.1507 28.4445 15.1166C28.7943 15.1677 29.0675 15.1045 29.4002 15.1166C30.2066 15.1434 34.0127 15.2624 33.7309 13.6788H33.7285Z" fill="#FF9900" />
      <path id="Vector 2697" d="M28.9265 13.1794C29.1249 11.7139 28.4517 10.7387 27.5798 10.2746C27.3008 10.1261 26.9985 10.3574 26.9992 10.6734C27.0037 12.8634 27.0586 13.7158 27.7217 15.348L31.3361 13.3462L28.9265 13.1794Z" fill="#FF9900" />
      <path id="Vector 2707" d="M22.4205 25.9525C22.8061 25.1814 19.6896 21.4545 18.0832 19.6875C14.2279 22.82 11.8183 23.0609 10.3725 23.3019C9.21591 23.4947 8.92676 24.3461 8.92676 24.7477C12.7821 28.7958 19.529 27.2376 22.4205 25.9525Z" fill="#9B9B9B" />
      <path id="Vector_4" d="M22.1064 25.7735C20.1949 26.7208 18.0915 27.2065 15.959 27.192C13.977 27.1774 11.6137 26.7839 9.91834 25.6861C9.20182 25.2197 8.78405 24.2069 9.70946 23.7138C10.1054 23.5025 10.579 23.4612 11.0162 23.398C11.7011 23.3009 12.3715 23.16 13.0297 22.956C15.3712 24.219 18.1522 24.27 20.5447 23.1114C20.8119 22.9827 20.569 22.5892 20.3018 22.718C18.1911 23.7405 15.7428 23.7357 13.637 22.7471C13.6637 22.7374 13.6904 22.7277 13.7147 22.718C15.3833 22.0743 16.8674 21.059 18.0939 19.7596C18.298 19.5434 17.9652 19.2228 17.7612 19.439C15.959 21.3481 13.6029 22.5625 11.0065 22.9341C10.2997 23.0361 9.43256 23.109 8.95408 23.7162C8.43673 24.3745 8.71362 25.2464 9.27712 25.7759C10.0009 26.456 11.1328 26.7936 12.0679 27.0729C13.1657 27.4008 14.3049 27.5854 15.4489 27.6364C17.8389 27.7457 20.2095 27.226 22.3493 26.1621C22.6165 26.031 22.3736 25.6375 22.1064 25.7686V25.7735Z" fill="black" />
      <path id="Ellipse 197" d="M24.8962 14.5057C25.4992 14.3052 25.9255 13.8068 26.1376 13.1878C26.3497 12.5689 26.353 11.8192 26.108 11.0821C25.863 10.3451 25.4115 9.74651 24.8712 9.37776C24.3308 9.0089 23.691 8.86476 23.0879 9.0652C22.4849 9.26564 22.0586 9.7641 21.8465 10.3831C21.6345 11.0019 21.6311 11.7516 21.8761 12.4887C22.1211 13.2258 22.5726 13.8244 23.1129 14.1931C23.6534 14.562 24.2932 14.7061 24.8962 14.5057Z" fill="white" stroke="black" stroke-width="0.385536" />
      <path id="Vector_5" d="M24.3484 11.0041H24.3484L24.3483 10.9988C24.346 10.8933 24.4367 10.7824 24.593 10.7726C24.7098 10.7652 24.826 10.8767 24.8301 10.9875V11.0223H24.83L24.8301 11.0276C24.8324 11.1331 24.7418 11.2439 24.5854 11.2538C24.4686 11.2611 24.3525 11.1496 24.3484 11.0389V11.0041Z" fill="white" stroke="black" stroke-width="0.48192" />
      <path id="Vector_6" d="M28.5188 12.1993L28.5187 12.1993L28.503 12.1786L28.5027 12.1782L28.4261 12.2367L28.5188 12.1993ZM28.5188 12.1993L28.5194 12.2002M28.5188 12.1993L28.5194 12.2002M28.5194 12.2002C28.5774 12.278 28.6175 12.3687 28.6312 12.4515M28.5194 12.2002L28.6312 12.4515M28.6312 12.4515C28.6431 12.5243 28.6398 12.6378 28.5445 12.6932M28.6312 12.4515L28.5445 12.6932M28.5445 12.6932C28.4657 12.7389 28.3736 12.7216 28.3017 12.6873M28.5445 12.6932L28.3017 12.6873M28.3017 12.6873C28.2265 12.6515 28.1528 12.5887 28.0917 12.507M28.3017 12.6873L28.0917 12.507M28.0917 12.507L28.092 12.5074L28.1687 12.4489L28.0914 12.5065L28.0917 12.507Z" fill="#FFB000" stroke="#743C09" stroke-width="0.192768" />
    </g>
  </g>
</svg>