<svg viewBox="0 0 34 34" fill="none" xmlns="http://www.w3.org/2000/svg">
  <g id="Duck/Normal duck">
    <g id="Group 427321987">
      <g id="Union">
        <mask id="path-1-outside-1_5729_149037" maskUnits="userSpaceOnUse" x="0.831299" y="0.632812" width="33" height="33" fill="black">
          <rect fill="white" x="0.831299" y="0.632812" width="33" height="33" />
          <path fill-rule="evenodd" clip-rule="evenodd" d="M20.8536 3.95844C20.7032 3.35663 19.8623 2.10664 17.6974 1.63377C17.6408 1.6214 17.6028 1.73221 17.6519 1.76309C18.3414 2.19741 19.2414 3.08652 18.9259 3.71748C18.9052 3.70364 18.879 3.68539 18.848 3.66371C18.5332 3.44379 17.7137 2.87126 16.8722 2.97601C16.8296 2.98131 16.8181 3.03575 16.8531 3.06063C17.2661 3.35441 17.8833 3.90495 17.9764 4.39362C15.9733 5.00948 14.3172 6.49762 13.7054 8.63053C13.2366 10.2652 13.6592 11.6982 14.4583 13.1361C14.9344 13.9911 15.0631 14.7416 14.5846 15.6354C14.2713 16.2208 13.7904 16.7041 13.2803 17.1413C12.8747 17.3696 12.4593 17.5737 12.0562 17.7485C9.16579 19.0043 5.83094 19.1014 2.89685 17.9331C2.47423 17.7655 2.12933 18.0643 2.05403 18.4068C2.0176 18.4942 2.00303 18.5914 2.02489 18.6885C2.1609 19.2909 2.42322 19.8617 2.79241 20.362C2.56653 20.1118 1.99088 20.3304 1.87187 20.6851C1.74314 21.064 1.94473 21.4429 2.14147 21.7756C2.30176 22.0476 2.46266 22.319 2.62356 22.5904L2.62357 22.5905L2.6236 22.5905C2.78452 22.8619 2.94543 23.1334 3.10574 23.4054C2.83856 23.3447 2.56653 23.6191 2.55438 23.879V23.8887C2.18033 24.0806 1.94716 24.4765 2.15605 24.989C3.33891 27.8915 5.95238 29.8638 8.76016 31.0879C11.7234 32.3777 15.0218 32.9047 18.2328 32.4603C23.8362 31.6854 31.4119 27.7167 29.6267 20.9061C29.3222 19.7438 28.6894 18.7407 28.0565 17.7376C27.7451 17.244 27.4337 16.7504 27.1613 16.2378C26.9986 15.9317 26.8504 15.6184 26.712 15.3002C26.6901 14.8727 26.7169 14.4428 26.763 14.0178C26.7898 13.7798 26.8222 13.5425 26.8572 13.3055L26.8776 13.3559L27.4601 13.0333C27.4828 13.0303 27.5054 13.0271 27.528 13.0238C27.8778 13.0748 28.2251 13.104 28.5579 13.1161C29.3643 13.1429 33.1703 13.2619 32.8886 11.6782H32.8861C32.7817 11.0977 31.9146 10.884 31.4507 10.7771C31.198 10.7189 30.9497 10.6649 30.7052 10.6117C29.758 10.4055 28.868 10.2118 28.0012 9.83594C27.8271 9.23864 27.4723 8.78245 27.0383 8.47048C26.4941 6.4211 24.8056 5.11536 22.8355 4.49658C22.4882 4.35085 22.1311 4.23912 21.7692 4.17354C21.7559 4.17111 21.7419 4.16929 21.728 4.16747L21.7279 4.16747L21.7279 4.16747C21.714 4.16565 21.7 4.16382 21.6866 4.1614C21.4632 4.09582 21.2349 4.04481 21.0041 4.01081C20.9484 4.00258 20.8927 3.99544 20.8372 3.98935C20.8429 3.97918 20.8484 3.96888 20.8536 3.95844Z" />
        </mask>
        <path d="M17.6974 1.63377L17.5937 2.10836L17.5937 2.10836L17.6974 1.63377ZM20.8536 3.95844L21.2881 4.17566L21.3685 4.01494L21.3249 3.84062L20.8536 3.95844ZM17.6519 1.76309L17.393 2.17413L17.6519 1.76309ZM18.9259 3.71748L18.6565 4.12167L19.1143 4.42691L19.3604 3.93473L18.9259 3.71748ZM18.848 3.66371L18.5698 4.06193L18.5698 4.06194L18.848 3.66371ZM16.8722 2.97601L16.8122 2.49395V2.49395L16.8722 2.97601ZM16.8531 3.06063L16.5715 3.45649V3.45649L16.8531 3.06063ZM17.9764 4.39362L18.1192 4.85795L18.535 4.7301L18.4536 4.30272L17.9764 4.39362ZM13.7054 8.63053L13.2384 8.49659L13.2384 8.49662L13.7054 8.63053ZM14.4583 13.1361L14.0337 13.3721L14.0339 13.3724L14.4583 13.1361ZM14.5846 15.6354L14.1563 15.4061L14.1563 15.4062L14.5846 15.6354ZM13.2803 17.1413L13.5186 17.5646L13.5602 17.5412L13.5964 17.5101L13.2803 17.1413ZM12.0562 17.7485L11.8629 17.3029L11.8626 17.303L12.0562 17.7485ZM2.89685 17.9331L3.07656 17.4818L3.07592 17.4816L2.89685 17.9331ZM2.05403 18.4068L2.50244 18.5936L2.51915 18.5535L2.52848 18.5111L2.05403 18.4068ZM2.02489 18.6885L1.55096 18.7951L1.55104 18.7955L2.02489 18.6885ZM2.79241 20.362L2.43186 20.6876L3.1833 20.0736L2.79241 20.362ZM1.87187 20.6851L2.33182 20.8413L2.3324 20.8396L1.87187 20.6851ZM2.14147 21.7756L2.55999 21.529L2.55963 21.5284L2.14147 21.7756ZM2.62356 22.5904L2.2057 22.8382L2.21067 22.8465L2.21597 22.8547L2.62356 22.5904ZM2.62357 22.5905L3.04444 22.3479L3.03809 22.3368L3.03116 22.3262L2.62357 22.5905ZM2.6236 22.5905L2.2027 22.8331L2.20574 22.8382L2.6236 22.5905ZM3.10574 23.4054L2.99808 23.8791L4.09574 24.1286L3.52425 23.1588L3.10574 23.4054ZM2.55438 23.879L2.06914 23.8563L2.06861 23.8677V23.879H2.55438ZM2.55438 23.8887L2.77611 24.321L3.04016 24.1855V23.8887H2.55438ZM2.15605 24.989L2.6059 24.8057L2.60589 24.8057L2.15605 24.989ZM8.76016 31.0879L8.56602 31.5332L8.5663 31.5333L8.76016 31.0879ZM18.2328 32.4603L18.1662 31.9791L18.1662 31.9791L18.2328 32.4603ZM29.6267 20.9061L29.1567 21.0292L29.1568 21.0293L29.6267 20.9061ZM28.0565 17.7376L27.6457 17.9968L28.0565 17.7376ZM27.1613 16.2378L27.5903 16.0099L27.5902 16.0097L27.1613 16.2378ZM26.712 15.3002L26.2269 15.325L26.2314 15.4131L26.2666 15.494L26.712 15.3002ZM26.763 14.0178L26.2803 13.9633L26.2801 13.9653L26.763 14.0178ZM26.8572 13.3055L27.3076 13.1234L26.6379 11.467L26.3767 13.2345L26.8572 13.3055ZM26.8776 13.3559L26.4273 13.538L26.6329 14.0467L27.113 13.7808L26.8776 13.3559ZM27.4601 13.0333L27.3955 12.5518L27.3048 12.564L27.2247 12.6083L27.4601 13.0333ZM27.528 13.0238L27.5981 12.5432L27.5284 12.533L27.4586 12.543L27.528 13.0238ZM28.5579 13.1161L28.5402 13.6016L28.5418 13.6016L28.5579 13.1161ZM32.8886 11.6782L33.3668 11.5932L33.2955 11.1925H32.8886V11.6782ZM32.8861 11.6782L32.408 11.7643L32.48 12.164H32.8861V11.6782ZM31.4507 10.7771L31.3416 11.2505L31.3416 11.2505L31.4507 10.7771ZM30.7052 10.6117L30.6019 11.0863L30.7052 10.6117ZM28.0012 9.83594L27.5348 9.97186L27.5986 10.1909L27.8079 10.2816L28.0012 9.83594ZM27.0383 8.47048L26.5688 8.59515L26.6135 8.76333L26.7548 8.8649L27.0383 8.47048ZM22.8355 4.49658L22.6476 4.94452L22.6684 4.95326L22.6899 4.96003L22.8355 4.49658ZM21.7692 4.17354L21.6823 4.65148L21.6826 4.65153L21.7692 4.17354ZM21.728 4.16747L21.7908 3.68577L21.7882 3.68545L21.728 4.16747ZM21.7279 4.16747L21.6651 4.64917L21.6677 4.64949L21.7279 4.16747ZM21.6866 4.1614L21.5499 4.62751L21.5745 4.63474L21.5997 4.63933L21.6866 4.1614ZM21.0041 4.01081L20.9332 4.49138L20.9333 4.49139L21.0041 4.01081ZM20.8372 3.98935L20.4134 3.75192L20.0547 4.39223L20.7843 4.47223L20.8372 3.98935ZM17.5937 2.10836C19.6096 2.54867 20.284 3.68272 20.3823 4.07626L21.3249 3.84062C21.1224 3.03054 20.1149 1.66461 17.8011 1.15919L17.5937 2.10836ZM17.9107 1.35205C18.0447 1.43641 18.0952 1.56358 18.1093 1.64736C18.1228 1.72716 18.1104 1.79406 18.0938 1.84182C18.0776 1.88843 18.0438 1.95536 17.9739 2.01474C17.8962 2.08074 17.759 2.14446 17.5937 2.10836L17.8011 1.15919C17.6075 1.1169 17.4444 1.18983 17.3451 1.27409C17.2537 1.35173 17.2029 1.44598 17.1762 1.52261C17.1491 1.60038 17.133 1.7 17.1513 1.80888C17.1703 1.92172 17.2345 2.07433 17.393 2.17413L17.9107 1.35205ZM19.3604 3.93473C19.654 3.34763 19.3399 2.74849 19.0517 2.37149C18.7368 1.9596 18.2918 1.59203 17.9107 1.35205L17.393 2.17413C17.7015 2.36847 18.0513 2.66262 18.2799 2.9616C18.5352 3.29548 18.5134 3.45637 18.4914 3.50024L19.3604 3.93473ZM18.5698 4.06194C18.5992 4.08245 18.6303 4.10422 18.6565 4.12167L19.1954 3.31329C19.18 3.30306 19.1589 3.28834 19.1262 3.26549L18.5698 4.06194ZM16.9322 3.45806C17.2293 3.42108 17.55 3.50211 17.858 3.64096C18.1623 3.77817 18.4136 3.95281 18.5698 4.06193L19.1262 3.26549C18.9676 3.15469 18.6518 2.9331 18.2573 2.75526C17.8664 2.57904 17.3566 2.42618 16.8122 2.49395L16.9322 3.45806ZM17.1346 2.66477C17.2869 2.7731 17.3431 2.95603 17.3079 3.11567C17.2716 3.2801 17.1336 3.43299 16.9322 3.45806L16.8122 2.49395C16.2772 2.56056 16.2194 3.20606 16.5715 3.45649L17.1346 2.66477ZM18.4536 4.30272C18.3807 3.92003 18.1246 3.57661 17.8915 3.32435C17.6457 3.05839 17.3609 2.82575 17.1346 2.66477L16.5715 3.45649C16.7582 3.5893 16.9886 3.77881 17.178 3.98373C17.38 4.20235 17.479 4.37854 17.4992 4.48453L18.4536 4.30272ZM17.8337 3.9293C15.6929 4.58746 13.9008 6.18733 13.2384 8.49659L14.1723 8.76447C14.7335 6.80792 16.2537 5.43149 18.1192 4.85795L17.8337 3.9293ZM13.2384 8.49662C12.7199 10.3047 13.2024 11.8762 14.0337 13.3721L14.8829 12.9001C14.1161 11.5202 13.7533 10.2256 14.1723 8.76444L13.2384 8.49662ZM14.0339 13.3724C14.2533 13.7664 14.3707 14.0983 14.3951 14.4092C14.4188 14.7112 14.3576 15.0303 14.1563 15.4061L15.0129 15.8647C15.2902 15.3467 15.4038 14.8436 15.3637 14.3332C15.3243 13.8316 15.1394 13.3608 14.8827 12.8998L14.0339 13.3724ZM14.1563 15.4062C13.8859 15.9114 13.4598 16.3477 12.9642 16.7725L13.5964 17.5101C14.1209 17.0606 14.6567 16.5302 15.0129 15.8647L14.1563 15.4062ZM13.042 16.718C12.6518 16.9376 12.2516 17.1343 11.8629 17.3029L12.2494 18.1942C12.6671 18.013 13.0975 17.8016 13.5186 17.5646L13.042 16.718ZM11.8626 17.303C9.08631 18.5092 5.88583 18.6004 3.07656 17.4818L2.71715 18.3844C5.77604 19.6024 9.24527 19.4994 12.2497 18.1941L11.8626 17.303ZM3.07592 17.4816C2.71454 17.3383 2.35752 17.3912 2.08036 17.5714C1.81764 17.7423 1.64269 18.0154 1.57959 18.3025L2.52848 18.5111C2.54067 18.4556 2.57582 18.4082 2.61002 18.3859C2.62457 18.3765 2.63702 18.3726 2.64835 18.3714C2.65884 18.3703 2.68091 18.3701 2.71779 18.3847L3.07592 17.4816ZM1.60563 18.2199C1.53819 18.3818 1.50301 18.5821 1.55096 18.7951L2.49881 18.5819C2.50072 18.5904 2.5005 18.5969 2.50017 18.5997C2.49991 18.602 2.49982 18.5999 2.50244 18.5936L1.60563 18.2199ZM1.55104 18.7955C1.70205 19.4643 1.99295 20.0967 2.40153 20.6504L3.1833 20.0736C2.85349 19.6266 2.61975 19.1175 2.49873 18.5815L1.55104 18.7955ZM3.15296 20.0365C2.84212 19.6922 2.38591 19.7461 2.12671 19.84C1.84878 19.9406 1.53225 20.1702 1.41134 20.5305L2.3324 20.8396C2.32971 20.8476 2.33188 20.8352 2.35815 20.8117C2.38374 20.7888 2.41937 20.7673 2.45742 20.7535C2.47562 20.7469 2.49131 20.7432 2.5033 20.7415C2.51549 20.7397 2.52083 20.7404 2.51957 20.7402C2.51652 20.7399 2.47317 20.7333 2.43186 20.6876L3.15296 20.0365ZM1.41191 20.5288C1.30395 20.8466 1.34248 21.1478 1.42204 21.396C1.49923 21.6367 1.62463 21.8559 1.72332 22.0228L2.55963 21.5284C2.46158 21.3625 2.38781 21.226 2.34719 21.0993C2.30896 20.9801 2.31106 20.9024 2.33182 20.8413L1.41191 20.5288ZM1.72296 22.0222C1.88363 22.2949 2.04485 22.5668 2.2057 22.8382L3.04142 22.3427C2.88047 22.0712 2.7199 21.8004 2.55999 21.529L1.72296 22.0222ZM2.21597 22.8547L2.21599 22.8547L3.03116 22.3262L3.03115 22.3261L2.21597 22.8547ZM2.20271 22.833L2.20274 22.8331L3.04447 22.3479L3.04444 22.3479L2.20271 22.833ZM2.20574 22.8382C2.36671 23.1098 2.5273 23.3806 2.68722 23.652L3.52425 23.1588C3.36357 22.8861 3.20233 22.6141 3.04147 22.3428L2.20574 22.8382ZM3.2134 22.9317C2.88042 22.856 2.58956 22.9973 2.40776 23.1624C2.22715 23.3265 2.08227 23.5753 2.06914 23.8563L3.03963 23.9017C3.03896 23.916 3.03578 23.9174 3.04052 23.9081C3.04505 23.8993 3.05258 23.8892 3.06108 23.8815C3.06979 23.8736 3.07206 23.8748 3.06327 23.8777C3.05835 23.8794 3.04985 23.8816 3.03813 23.8824C3.02615 23.8832 3.0124 23.8823 2.99808 23.8791L3.2134 22.9317ZM2.06861 23.879V23.8887H3.04016V23.879H2.06861ZM2.33266 23.4565C2.0639 23.5944 1.82031 23.8188 1.68907 24.1298C1.55437 24.4489 1.55878 24.8107 1.7062 25.1724L2.60589 24.8057C2.54442 24.6549 2.56098 24.5625 2.58416 24.5076C2.61079 24.4444 2.67082 24.375 2.77611 24.321L2.33266 23.4565ZM1.70619 25.1724C2.95552 28.238 5.69706 30.2824 8.56602 31.5332L8.95431 30.6426C6.2077 29.4452 3.7223 27.5451 2.6059 24.8057L1.70619 25.1724ZM8.5663 31.5333C11.6044 32.8557 14.9927 33.3992 18.2994 32.9414L18.1662 31.9791C15.051 32.4103 11.8424 31.8997 8.95403 30.6425L8.5663 31.5333ZM18.2993 32.9414C21.1674 32.5449 24.5523 31.3321 27.0081 29.3225C29.4807 27.2992 31.0507 24.4229 30.0966 20.7829L29.1568 21.0293C29.9878 24.1998 28.6626 26.7132 26.3928 28.5706C24.1063 30.4417 20.9016 31.6008 18.1662 31.9791L18.2993 32.9414ZM30.0966 20.783C29.77 19.5361 29.0935 18.4709 28.4674 17.4784L27.6457 17.9968C28.2853 19.0106 28.8745 19.9514 29.1567 21.0292L30.0966 20.783ZM28.4674 17.4784C28.1543 16.9822 27.8527 16.5038 27.5903 16.0099L26.7323 16.4657C27.0146 16.997 27.3359 17.5058 27.6457 17.9968L28.4674 17.4784ZM27.5902 16.0097C27.4346 15.717 27.2919 15.4154 27.1574 15.1064L26.2666 15.494C26.409 15.8214 26.5626 16.1465 26.7324 16.4658L27.5902 16.0097ZM27.1971 15.2754C27.1771 14.8835 27.2013 14.4816 27.2459 14.0702L26.2801 13.9653C26.2324 14.404 26.2032 14.862 26.2269 15.325L27.1971 15.2754ZM27.2457 14.0722C27.2717 13.8416 27.3033 13.6101 27.3378 13.3765L26.3767 13.2345C26.3411 13.4749 26.3079 13.7181 26.2803 13.9633L27.2457 14.0722ZM26.4069 13.4876L26.4273 13.538L27.328 13.1738L27.3076 13.1234L26.4069 13.4876ZM27.113 13.7808L27.6954 13.4583L27.2247 12.6083L26.6423 12.9309L27.113 13.7808ZM27.5246 13.5148C27.5489 13.5115 27.5732 13.5081 27.5974 13.5046L27.4586 12.543C27.4377 12.5461 27.4166 12.549 27.3955 12.5518L27.5246 13.5148ZM27.4579 13.5045C27.8267 13.5583 28.1917 13.5889 28.5402 13.6016L28.5756 12.6307C28.2586 12.6191 27.9288 12.5914 27.5981 12.5432L27.4579 13.5045ZM28.5418 13.6016C28.9425 13.6149 30.1395 13.6539 31.209 13.4806C31.7367 13.3951 32.291 13.2496 32.7061 12.9839C32.9186 12.8478 33.1167 12.6663 33.2455 12.4235C33.3785 12.1731 33.4198 11.8906 33.3668 11.5932L32.4103 11.7633C32.4278 11.8618 32.4118 11.922 32.3874 11.9681C32.3588 12.0218 32.2995 12.0906 32.1822 12.1656C31.9377 12.3222 31.543 12.4422 31.0535 12.5216C30.0888 12.6779 28.9796 12.6441 28.574 12.6306L28.5418 13.6016ZM32.8886 11.1925H32.8861V12.164H32.8886V11.1925ZM33.3642 11.5922C33.2694 11.0651 32.8421 10.7713 32.5149 10.6129C32.1718 10.4467 31.7891 10.3566 31.5597 10.3038L31.3416 11.2505C31.5761 11.3045 31.859 11.3747 32.0915 11.4873C32.3399 11.6076 32.3984 11.7109 32.408 11.7643L33.3642 11.5922ZM31.5597 10.3038C31.3037 10.2448 31.0525 10.1901 30.8085 10.137L30.6019 11.0863C30.8468 11.1396 31.0922 11.1931 31.3416 11.2505L31.5597 10.3038ZM30.8085 10.137C29.8539 9.92924 29.0106 9.74416 28.1944 9.39026L27.8079 10.2816C28.7254 10.6795 29.6621 10.8818 30.6019 11.0863L30.8085 10.137ZM28.4675 9.70003C28.2611 8.99164 27.8379 8.44702 27.3219 8.07605L26.7548 8.8649C27.1066 9.11788 27.3931 9.48565 27.5348 9.97186L28.4675 9.70003ZM27.5078 8.34581C26.9073 6.08423 25.0519 4.68357 22.9811 4.03313L22.6899 4.96003C24.5592 5.54716 26.081 6.75796 26.5688 8.59515L27.5078 8.34581ZM23.0235 4.04864C22.6487 3.89138 22.2576 3.76835 21.8558 3.69555L21.6826 4.65153C22.0047 4.70989 22.3277 4.81032 22.6476 4.94452L23.0235 4.04864ZM21.8561 3.6956C21.8287 3.69061 21.8024 3.68729 21.7908 3.68578L21.6651 4.64916C21.6726 4.65014 21.6766 4.65067 21.6801 4.65117C21.6833 4.65163 21.6837 4.65173 21.6823 4.65148L21.8561 3.6956ZM21.7882 3.68545L21.7882 3.68544L21.6677 4.64949L21.6677 4.64949L21.7882 3.68545ZM21.7882 3.68544L21.7882 3.68544L21.6677 4.64949L21.6677 4.64949L21.7882 3.68544ZM21.7908 3.68577C21.7833 3.68479 21.7792 3.68426 21.7758 3.68377C21.7726 3.68331 21.7722 3.68321 21.7736 3.68346L21.5997 4.63933C21.6272 4.64433 21.6535 4.64765 21.6651 4.64916L21.7908 3.68577ZM21.8234 3.69528C21.5796 3.62371 21.3292 3.56769 21.075 3.53022L20.9333 4.49139C21.1405 4.52193 21.3468 4.56792 21.5499 4.62751L21.8234 3.69528ZM21.075 3.53023C21.0133 3.52112 20.9516 3.51321 20.8902 3.50647L20.7843 4.47223C20.8338 4.47767 20.8835 4.48404 20.9332 4.49138L21.075 3.53023ZM20.4191 3.74122C20.4173 3.74477 20.4154 3.74834 20.4134 3.75192L21.261 4.22679C21.2704 4.21003 21.2795 4.19299 21.2881 4.17566L20.4191 3.74122Z" fill="black" mask="url(#path-1-outside-1_5729_149037)" />
      </g>
      <path id="Union_2" fill-rule="evenodd" clip-rule="evenodd" d="M20.8536 3.95844C20.7032 3.35663 19.8623 2.10664 17.6974 1.63377C17.6408 1.6214 17.6028 1.73221 17.6519 1.76309C18.3414 2.19741 19.2414 3.08652 18.9259 3.71748C18.9052 3.70364 18.879 3.68539 18.848 3.66371C18.5332 3.44379 17.7137 2.87126 16.8722 2.97601C16.8296 2.98131 16.8181 3.03575 16.8531 3.06063C17.2661 3.35441 17.8833 3.90495 17.9764 4.39362C15.9733 5.00948 14.3172 6.49762 13.7054 8.63053C13.2366 10.2652 13.6592 11.6982 14.4583 13.1361C14.9344 13.9911 15.0631 14.7416 14.5846 15.6354C14.2713 16.2208 13.7904 16.7041 13.2803 17.1413C12.8747 17.3696 12.4593 17.5737 12.0562 17.7485C9.16579 19.0043 5.83094 19.1014 2.89685 17.9331C2.47423 17.7655 2.12933 18.0643 2.05403 18.4068C2.0176 18.4942 2.00303 18.5914 2.02489 18.6885C2.1609 19.2909 2.42322 19.8617 2.79241 20.362C2.56653 20.1118 1.99088 20.3304 1.87187 20.6851C1.74314 21.064 1.94473 21.4429 2.14147 21.7756C2.30176 22.0476 2.46266 22.319 2.62356 22.5904L2.62357 22.5905L2.6236 22.5905C2.78452 22.8619 2.94543 23.1334 3.10574 23.4054C2.83856 23.3447 2.56653 23.6191 2.55438 23.879V23.8887C2.18033 24.0806 1.94716 24.4765 2.15605 24.989C3.33891 27.8915 5.95238 29.8638 8.76016 31.0879C11.7234 32.3777 15.0218 32.9047 18.2328 32.4603C23.8362 31.6854 31.4119 27.7167 29.6267 20.9061C29.3222 19.7438 28.6894 18.7407 28.0565 17.7376C27.7451 17.244 27.4337 16.7504 27.1613 16.2378C26.9986 15.9317 26.8504 15.6184 26.712 15.3002C26.6901 14.8727 26.7169 14.4428 26.763 14.0178C26.7898 13.7798 26.8222 13.5425 26.8572 13.3055L26.8776 13.3559L27.4601 13.0333C27.4828 13.0303 27.5054 13.0271 27.528 13.0238C27.8778 13.0748 28.2251 13.104 28.5579 13.1161C29.3643 13.1429 33.1703 13.2619 32.8886 11.6782H32.8861C32.7817 11.0977 31.9146 10.884 31.4507 10.7771C31.198 10.7189 30.9497 10.6649 30.7052 10.6117C29.758 10.4055 28.868 10.2118 28.0012 9.83594C27.8271 9.23864 27.4723 8.78245 27.0383 8.47048C26.4941 6.4211 24.8056 5.11536 22.8355 4.49658C22.4882 4.35085 22.1311 4.23912 21.7692 4.17354C21.7559 4.17111 21.7419 4.16929 21.728 4.16747L21.7279 4.16747L21.7279 4.16747C21.714 4.16565 21.7 4.16382 21.6866 4.1614C21.4632 4.09582 21.2349 4.04481 21.0041 4.01081C20.9484 4.00258 20.8927 3.99544 20.8372 3.98935C20.8429 3.97918 20.8484 3.96888 20.8536 3.95844Z" fill="white" />
      <g id="Group 427321975" opacity="0.5">
        <mask id="mask0_5729_149037" style="mask-type:alpha" maskUnits="userSpaceOnUse" x="1" y="3" width="29" height="30">
          <g id="Vector" style="mix-blend-mode:overlay">
            <path d="M29.6248 20.9048C29.1706 19.1706 27.9853 17.791 27.1595 16.2365C26.9968 15.9305 26.8486 15.6171 26.7102 15.299C26.6883 14.8715 26.715 14.4416 26.7612 14.0165C26.9433 12.4013 27.3805 10.8128 27.1741 9.17819C26.8632 6.71773 25.0221 5.18268 22.8337 4.49531C22.4864 4.34958 22.1293 4.23785 21.7674 4.17227C21.7407 4.16741 21.7115 4.16498 21.6848 4.16013C21.4614 4.09455 21.233 4.04354 21.0023 4.00954C20.2615 3.90024 19.545 3.98282 18.8552 4.18199C16.4676 4.5949 14.403 6.19067 13.7035 8.62926C13.2348 10.2639 13.6574 11.6969 14.4565 13.1348C14.9325 13.9898 15.0613 14.7403 14.5828 15.6341C14.2695 16.2195 13.7885 16.7028 13.2785 17.14C12.8729 17.3684 12.4575 17.5724 12.0543 17.7473C9.16396 19.003 5.82911 19.1002 2.89502 17.9319C2.4724 17.7643 2.1275 18.063 2.0522 18.4055C2.01577 18.4929 2.0012 18.5901 2.02306 18.6872C2.15907 19.2896 2.42139 19.8604 2.79058 20.3607C2.56469 20.1106 1.98905 20.3292 1.87004 20.6838C1.74131 21.0627 1.9429 21.4416 2.13964 21.7743C2.46025 22.3184 2.78329 22.8601 3.10391 23.4041C2.83673 23.3434 2.56469 23.6179 2.55255 23.8778C2.55255 23.8802 2.55255 23.885 2.55255 23.8875C2.1785 24.0794 1.94533 24.4753 2.15421 24.9878C3.33708 27.8903 5.95055 29.8625 8.75833 31.0867C11.7216 32.3764 15.02 32.9035 18.231 32.459C23.8344 31.6842 31.41 27.7154 29.6248 20.9048Z" fill="#4E2478" />
          </g>
        </mask>
        <g mask="url(#mask0_5729_149037)">
          <g id="Vector 2701" style="mix-blend-mode:multiply">
            <path d="M25.9137 27.0878C31.1411 24.3898 27.7611 19.1362 27.3595 16.7266C30.9739 17.6904 35.5521 30.4613 21.5764 36.0034C10.3959 40.437 2.37994 27.891 0.130981 22.7506C4.46826 27.0878 18.4439 30.9432 25.9137 27.0878Z" fill="#ECECEC" />
          </g>
          <g id="Vector 2702" style="mix-blend-mode:multiply">
            <path d="M16.9982 14.077C14.4922 13.6915 13.7051 10.7036 13.6247 9.25781C10.8939 11.5068 5.33571 16.0529 4.95018 16.2457C4.56464 16.4384 4.30761 17.4505 4.22729 17.9324C12.179 21.3058 20.1307 14.5589 16.9982 14.077Z" fill="#ECECEC" />
          </g>
        </g>
      </g>
      <path id="Vector_2" opacity="0.23" d="M21.6241 23.9965C21.5658 23.824 21.3181 23.8337 21.2258 23.9625C21.1262 24.0985 21.0169 24.2224 20.9027 24.3365C20.6137 24.3972 20.3417 24.4823 20.0624 24.6013C19.9846 24.6353 19.9458 24.6887 19.9336 24.7494C19.8923 24.7786 19.8559 24.8126 19.8195 24.8466C19.8049 24.8272 19.7855 24.8102 19.766 24.7956C19.7247 24.73 19.6494 24.6911 19.5474 24.7154C19.3434 24.764 19.1394 24.8126 18.9378 24.8636C18.5953 24.9267 18.2577 25.0069 17.9201 25.1089C17.8812 25.121 17.8496 25.1405 17.8229 25.1648C17.6602 25.2036 17.4975 25.2425 17.3347 25.2789C16.8757 25.3445 16.4215 25.4247 15.9697 25.5267C15.8313 25.534 15.6928 25.5461 15.5544 25.5607C15.1487 25.5728 14.7455 25.5874 14.3399 25.5995C14.3205 25.517 14.2573 25.4441 14.148 25.4222C13.5991 25.3178 13.0526 25.2546 12.4915 25.2303C12.4867 25.2303 12.4818 25.2303 12.4794 25.2303C12.2171 25.1963 11.9548 25.1575 11.69 25.1186C11.5443 25.07 11.401 25.019 11.2552 24.9705C10.7185 24.7324 10.189 24.4798 9.66676 24.2102C9.60118 24.1762 9.54046 24.1835 9.48702 24.2126C9.47002 24.2029 9.45059 24.1932 9.43359 24.1835C9.40687 24.1689 9.38015 24.1616 9.35343 24.1616C8.97453 23.7487 8.65392 23.2897 8.41589 22.7772C8.28959 22.5076 7.87182 22.7043 7.99812 22.9739C8.28473 23.5884 8.67821 24.1374 9.14941 24.6207C9.16398 24.6571 9.1907 24.6887 9.22956 24.7154C9.24171 24.7227 9.25385 24.73 9.26842 24.7397C10.9055 26.3428 13.3951 27.2075 15.5568 27.4382C17.5558 27.6519 22.7098 27.2487 21.6266 23.994L21.6241 23.9965Z" fill="#ECECEC" />
      <path id="Vector_3" d="M32.8844 11.6788C32.7799 11.0983 31.9128 10.8845 31.4489 10.7776C29.994 10.4425 28.6849 10.2457 27.4097 9.54863C27.3247 9.47819 27.2397 9.40047 27.1547 9.32031C27.1037 9.32274 27.0526 9.33003 27.0114 9.34946C26.8243 9.44176 26.6907 9.74779 26.6155 9.9251C26.3726 10.5056 26.6196 10.8032 26.6366 11.4249C26.6511 11.9763 26.5496 12.7936 26.8775 13.1166C27.118 13.1021 27.3648 13.1507 27.6004 13.1166C27.9502 13.1677 28.2234 13.1045 28.5561 13.1166C29.3625 13.1434 33.1686 13.2624 32.8868 11.6788H32.8844Z" fill="#FF9900" />
      <path id="Vector 2697" d="M28.0823 11.1872C28.2808 9.72171 27.6076 8.74656 26.7357 8.28242C26.4567 8.13388 26.1544 8.36517 26.1551 8.68126C26.1596 10.8712 26.2145 11.7236 26.8775 13.3558L30.4919 11.354L28.0823 11.1872Z" fill="#FF9900" />
      <path id="Vector 2707" d="M21.5764 23.9603C21.9619 23.1892 18.8455 19.4624 17.2391 17.6953C13.3838 20.8278 10.9742 21.0688 9.5284 21.3097C8.37179 21.5025 8.08264 22.3539 8.08264 22.7555C11.938 26.8036 18.6849 25.2454 21.5764 23.9603Z" fill="white" />
      <path id="Vector_4" d="M21.2623 23.7735C19.3508 24.7208 17.2474 25.2065 15.1148 25.192C13.1329 25.1774 10.7696 24.7839 9.07422 23.6861C8.35771 23.2197 7.93994 22.2069 8.86534 21.7138C9.26125 21.5025 9.73488 21.4612 10.1721 21.398C10.857 21.3009 11.5274 21.16 12.1856 20.956C14.5271 22.219 17.3081 22.27 19.7006 21.1114C19.9677 20.9827 19.7249 20.5892 19.4577 20.718C17.347 21.7405 14.8987 21.7357 12.7928 20.7471C12.8196 20.7374 12.8463 20.7277 12.8706 20.718C14.5392 20.0743 16.0232 19.059 17.2498 17.7596C17.4539 17.5434 17.1211 17.2228 16.9171 17.439C15.1148 19.3481 12.7588 20.5625 10.1624 20.9341C9.45556 21.0361 8.58845 21.109 8.10996 21.7162C7.59261 22.3745 7.8695 23.2464 8.433 23.7759C9.15681 24.456 10.2887 24.7936 11.2238 25.0729C12.3216 25.4008 13.4608 25.5854 14.6048 25.6364C16.9948 25.7457 19.3654 25.226 21.5052 24.1621C21.7724 24.031 21.5295 23.6375 21.2623 23.7686V23.7735Z" fill="black" />
      <path id="Ellipse 197" d="M24.0521 12.5057C24.6551 12.3052 25.0814 11.8068 25.2935 11.1878C25.5055 10.5689 25.5089 9.81923 25.2639 9.08214C25.0189 8.34505 24.5674 7.74651 24.0271 7.37776C23.4866 7.0089 22.8468 6.86476 22.2438 7.0652C21.6407 7.26564 21.2145 7.7641 21.0024 8.38311C20.7903 9.00193 20.787 9.75164 21.032 10.4887C21.277 11.2258 21.7285 11.8244 22.2688 12.1931C22.8092 12.562 23.449 12.7061 24.0521 12.5057Z" fill="white" stroke="black" stroke-width="0.385536" />
      <path id="Vector_5" d="M23.5043 9.01187H23.5043L23.5042 9.00657C23.5019 8.90108 23.5925 8.79025 23.7489 8.78039C23.8657 8.77302 23.9819 8.88456 23.986 8.99528V9.03009H23.9859L23.986 9.03539C23.9883 9.14088 23.8977 9.25171 23.7413 9.26158C23.6245 9.26895 23.5083 9.15741 23.5043 9.04668V9.01187Z" fill="white" stroke="black" stroke-width="0.48192" />
      <path id="Vector_6" d="M27.6746 10.2071L27.6746 10.2071L27.6589 10.1864L27.6586 10.186L27.5819 10.2445L27.6746 10.2071ZM27.6746 10.2071L27.6753 10.208M27.6746 10.2071L27.6753 10.208M27.6753 10.208C27.7332 10.2858 27.7734 10.3765 27.7871 10.4593M27.6753 10.208L27.7871 10.4593M27.7871 10.4593C27.799 10.5321 27.7957 10.6456 27.7004 10.701M27.7871 10.4593L27.7004 10.701M27.7004 10.701C27.6216 10.7468 27.5295 10.7294 27.4576 10.6951M27.7004 10.701L27.4576 10.6951M27.4576 10.6951C27.3824 10.6593 27.3087 10.5965 27.2476 10.5148M27.4576 10.6951L27.2476 10.5148M27.2476 10.5148L27.2479 10.5152L27.3245 10.4567L27.2473 10.5143L27.2476 10.5148Z" fill="#FFB000" stroke="#743C09" stroke-width="0.192768" />
    </g>
  </g>
</svg>