<svg viewBox="0 0 35 40" fill="none" xmlns="http://www.w3.org/2000/svg">
  <g id="Duck/Red">
    <g id="Group 427321991">
      <path id="Vector 2703" d="M26.2759 5.28918C23.5947 6.0988 23.6034 9.34695 24.0634 10.8313L16.6375 11.3132C13.7985 10.8274 12.0592 7.21686 13.264 4.32534C14.7098 6.25302 16.287 6.24339 16.8784 5.7711C16.2476 2.37071 18.8061 1.0483 20.1205 0.710938C19.1741 2.65403 20.2519 4.35411 20.909 4.96126C21.0668 3.34201 22.8148 3.07214 23.6691 3.1396C22.7228 3.62538 22.8805 5.23129 23.0777 5.97352C23.8663 5.1639 25.0711 4.80726 26.2759 5.28918Z" fill="#C21CBA" stroke="black" stroke-width="0.48192" />
      <g id="Union">
        <mask id="path-2-outside-1_5729_149046" maskUnits="userSpaceOnUse" x="1.67542" y="6.30469" width="33" height="33" fill="black">
          <rect fill="white" x="1.67542" y="6.30469" width="33" height="33" />
          <path fill-rule="evenodd" clip-rule="evenodd" d="M21.6977 9.63032C21.5473 9.02851 20.7064 7.77852 18.5415 7.30565C18.4849 7.29328 18.4469 7.40408 18.496 7.43497C19.1855 7.86928 20.0855 8.7584 19.7701 9.38936C19.7493 9.37552 19.7232 9.35727 19.6921 9.33559C19.3773 9.11566 18.5578 8.54313 17.7163 8.64788C17.6737 8.65319 17.6622 8.70762 17.6972 8.73251C18.1102 9.02629 18.7274 9.57683 18.8205 10.0655C16.8174 10.6814 15.1613 12.1695 14.5495 14.3024C14.0807 15.937 14.5033 17.3701 15.3024 18.808C15.7785 19.6629 15.9072 20.4135 15.4287 21.3073C15.1154 21.8926 14.6345 22.376 14.1244 22.8132C13.7188 23.0415 13.3035 23.2455 12.9003 23.4204C10.0099 24.6761 6.67505 24.7733 3.74097 23.605C3.31834 23.4374 2.97344 23.7362 2.89815 24.0786C2.86172 24.1661 2.84714 24.2632 2.869 24.3604C3.00502 24.9628 3.26734 25.5335 3.63653 26.0339C3.41064 25.7837 2.835 26.0023 2.71598 26.3569C2.58725 26.7358 2.78885 27.1147 2.98559 27.4475C3.14588 27.7195 3.30678 27.9909 3.46768 28.2623L3.46769 28.2623L3.46772 28.2624C3.62863 28.5338 3.78955 28.8052 3.94985 29.0773C3.68268 29.0165 3.41064 29.291 3.3985 29.5509V29.5606C3.02445 29.7525 2.79128 30.1484 3.00016 30.6609C4.18303 33.5634 6.7965 35.5357 9.60428 36.7598C12.5675 38.0495 15.8659 38.5766 19.0769 38.1321C24.6803 37.3573 32.256 33.3885 30.4708 26.578C30.1664 25.4156 29.5335 24.4126 28.9006 23.4095C28.5892 22.9159 28.2778 22.4223 28.0055 21.9097C27.8427 21.6036 27.6946 21.2903 27.5561 20.9721C27.5343 20.5446 27.561 20.1147 27.6071 19.6897C27.634 19.4517 27.6663 19.2144 27.7014 18.9774L27.7217 19.0278L28.3042 18.7052C28.3269 18.7021 28.3495 18.699 28.3721 18.6957C28.7219 18.7467 29.0692 18.7759 29.402 18.788C30.2084 18.8147 34.0144 18.9337 33.7327 17.3501H33.7302C33.6258 16.7696 32.7587 16.5559 32.2948 16.449C32.0421 16.3908 31.7938 16.3367 31.5493 16.2835C30.6021 16.0774 29.7121 15.8837 28.8453 15.5078C28.6712 14.9105 28.3164 14.4543 27.8824 14.1424C27.3383 12.093 25.6497 10.7872 23.6796 10.1685C23.3323 10.0227 22.9753 9.911 22.6133 9.84542C22.6 9.84299 22.586 9.84117 22.5721 9.83935L22.5721 9.83934L22.572 9.83934C22.5581 9.83752 22.5441 9.8357 22.5308 9.83327C22.3073 9.76769 22.079 9.71668 21.8483 9.68268C21.7925 9.67445 21.7368 9.66731 21.6814 9.66123C21.6871 9.65106 21.6925 9.64076 21.6977 9.63032Z" />
        </mask>
        <path d="M18.5415 7.30565L18.4379 7.78023L18.4379 7.78023L18.5415 7.30565ZM21.6977 9.63032L22.1322 9.84754L22.2126 9.68682L22.169 9.5125L21.6977 9.63032ZM18.496 7.43497L18.2371 7.84601L18.496 7.43497ZM19.7701 9.38936L19.5006 9.79355L19.9585 10.0988L20.2045 9.6066L19.7701 9.38936ZM19.6921 9.33559L19.4139 9.73381L19.4139 9.73382L19.6921 9.33559ZM17.7163 8.64788L17.6563 8.16583V8.16583L17.7163 8.64788ZM17.6972 8.73251L17.4156 9.12837V9.12837L17.6972 8.73251ZM18.8205 10.0655L18.9633 10.5298L19.3792 10.402L19.2977 9.97459L18.8205 10.0655ZM14.5495 14.3024L14.0825 14.1685L14.0825 14.1685L14.5495 14.3024ZM15.3024 18.808L14.8778 19.0439L14.878 19.0443L15.3024 18.808ZM15.4287 21.3073L15.0005 21.078L15.0004 21.078L15.4287 21.3073ZM14.1244 22.8132L14.3627 23.2365L14.4043 23.2131L14.4406 23.182L14.1244 22.8132ZM12.9003 23.4204L12.707 22.9748L12.7067 22.9749L12.9003 23.4204ZM3.74097 23.605L3.92067 23.1537L3.92004 23.1534L3.74097 23.605ZM2.89815 24.0786L3.34656 24.2655L3.36326 24.2254L3.37259 24.1829L2.89815 24.0786ZM2.869 24.3604L2.39507 24.467L2.39516 24.4674L2.869 24.3604ZM3.63653 26.0339L3.27598 26.3594L4.02741 25.7455L3.63653 26.0339ZM2.71598 26.3569L3.17594 26.5132L3.17651 26.5115L2.71598 26.3569ZM2.98559 27.4475L3.4041 27.2009L3.40374 27.2003L2.98559 27.4475ZM3.46768 28.2623L3.04981 28.51L3.05479 28.5184L3.06009 28.5266L3.46768 28.2623ZM3.46769 28.2623L3.88856 28.0197L3.8822 28.0087L3.87528 27.998L3.46769 28.2623ZM3.46772 28.2624L3.04682 28.505L3.04986 28.5101L3.46772 28.2624ZM3.94985 29.0773L3.84219 29.551L4.93985 29.8004L4.36837 28.8306L3.94985 29.0773ZM3.3985 29.5509L2.91325 29.5282L2.91272 29.5396V29.5509H3.3985ZM3.3985 29.5606L3.62022 29.9928L3.88427 29.8574V29.5606H3.3985ZM3.00016 30.6609L3.45002 30.4776L3.45001 30.4775L3.00016 30.6609ZM9.60428 36.7598L9.41014 37.2051L9.41042 37.2052L9.60428 36.7598ZM19.0769 38.1321L19.0104 37.6509L19.0103 37.6509L19.0769 38.1321ZM30.4708 26.578L30.0008 26.701L30.0009 26.7011L30.4708 26.578ZM28.9006 23.4095L28.4898 23.6687L28.9006 23.4095ZM28.0055 21.9097L28.4345 21.6817L28.4344 21.6816L28.0055 21.9097ZM27.5561 20.9721L27.071 20.9969L27.0755 21.085L27.1107 21.1659L27.5561 20.9721ZM27.6071 19.6897L27.1244 19.6352L27.1242 19.6372L27.6071 19.6897ZM27.7014 18.9774L28.1517 18.7953L27.482 17.1389L27.2208 18.9063L27.7014 18.9774ZM27.7217 19.0278L27.2714 19.2098L27.4771 19.7186L27.9571 19.4527L27.7217 19.0278ZM28.3042 18.7052L28.2396 18.2237L28.1489 18.2359L28.0688 18.2802L28.3042 18.7052ZM28.3721 18.6957L28.4422 18.215L28.3725 18.2049L28.3028 18.2149L28.3721 18.6957ZM29.402 18.788L29.3843 19.2735L29.3859 19.2735L29.402 18.788ZM33.7327 17.3501L34.2109 17.265L34.1397 16.8643H33.7327V17.3501ZM33.7302 17.3501L33.2521 17.4361L33.3241 17.8359H33.7302V17.3501ZM32.2948 16.449L32.1857 16.9224L32.1857 16.9224L32.2948 16.449ZM31.5493 16.2835L31.446 16.7582L31.5493 16.2835ZM28.8453 15.5078L28.3789 15.6437L28.4427 15.8627L28.652 15.9535L28.8453 15.5078ZM27.8824 14.1424L27.4129 14.267L27.4576 14.4352L27.5989 14.5368L27.8824 14.1424ZM23.6796 10.1685L23.4917 10.6164L23.5125 10.6251L23.5341 10.6319L23.6796 10.1685ZM22.6133 9.84542L22.5265 10.3234L22.5267 10.3234L22.6133 9.84542ZM22.5721 9.83935L22.6349 9.35764L22.6323 9.35732L22.5721 9.83935ZM22.572 9.83934L22.5092 10.321L22.5118 10.3214L22.572 9.83934ZM22.5308 9.83327L22.394 10.2994L22.4186 10.3066L22.4439 10.3112L22.5308 9.83327ZM21.8483 9.68268L21.7773 10.1633L21.7774 10.1633L21.8483 9.68268ZM21.6814 9.66123L21.2576 9.42379L20.8988 10.0641L21.6284 10.1441L21.6814 9.66123ZM18.4379 7.78023C20.4537 8.22055 21.1281 9.3546 21.2265 9.74813L22.169 9.5125C21.9665 8.70242 20.9591 7.33648 18.6452 6.83106L18.4379 7.78023ZM18.7549 7.02393C18.8888 7.10829 18.9393 7.23546 18.9535 7.31923C18.9669 7.39903 18.9545 7.46594 18.9379 7.51369C18.9217 7.56031 18.888 7.62724 18.818 7.68662C18.7403 7.75261 18.6031 7.81633 18.4379 7.78023L18.6452 6.83106C18.4516 6.78877 18.2885 6.86171 18.1892 6.94597C18.0978 7.02361 18.047 7.11785 18.0203 7.19448C17.9933 7.27225 17.9771 7.37187 17.9954 7.48075C18.0144 7.5936 18.0786 7.74621 18.2371 7.84601L18.7549 7.02393ZM20.2045 9.6066C20.4981 9.01951 20.184 8.42036 19.8958 8.04337C19.5809 7.63147 19.1359 7.26391 18.7549 7.02393L18.2371 7.84601C18.5456 8.04034 18.8954 8.3345 19.124 8.63347C19.3793 8.96736 19.3575 9.12825 19.3356 9.17211L20.2045 9.6066ZM19.4139 9.73382C19.4433 9.75432 19.4744 9.7761 19.5006 9.79355L20.0395 8.98516C20.0242 8.97494 20.003 8.96021 19.9703 8.93736L19.4139 9.73382ZM17.7763 9.12994C18.0734 9.09296 18.3941 9.17398 18.7021 9.31283C19.0064 9.45005 19.2577 9.62468 19.4139 9.73381L19.9703 8.93737C19.8117 8.82657 19.4959 8.60498 19.1014 8.42713C18.7105 8.25092 18.2007 8.09806 17.6563 8.16583L17.7763 9.12994ZM17.9787 8.33665C18.131 8.44498 18.1872 8.6279 18.152 8.78754C18.1157 8.95198 17.9778 9.10486 17.7763 9.12994L17.6563 8.16583C17.1213 8.23243 17.0635 8.87793 17.4156 9.12837L17.9787 8.33665ZM19.2977 9.97459C19.2248 9.59191 18.9687 9.24849 18.7356 8.99623C18.4898 8.73027 18.2051 8.49762 17.9787 8.33665L17.4156 9.12837C17.6023 9.26117 17.8327 9.45069 18.0221 9.65561C18.2241 9.87423 18.3232 10.0504 18.3433 10.1564L19.2977 9.97459ZM18.6778 9.60117C16.537 10.2593 14.7449 11.8592 14.0825 14.1685L15.0164 14.4363C15.5777 12.4798 17.0978 11.1034 18.9633 10.5298L18.6778 9.60117ZM14.0825 14.1685C13.564 15.9766 14.0465 17.548 14.8778 19.0439L15.727 18.572C14.9602 17.1921 14.5974 15.8975 15.0164 14.4363L14.0825 14.1685ZM14.878 19.0443C15.0974 19.4383 15.2149 19.7702 15.2392 20.0811C15.2629 20.3831 15.2017 20.7021 15.0005 21.078L15.857 21.5366C16.1343 21.0186 16.2479 20.5155 16.2078 20.0051C16.1685 19.5034 15.9835 19.0326 15.7268 18.5717L14.878 19.0443ZM15.0004 21.078C14.73 21.5832 14.3039 22.0195 13.8083 22.4444L14.4406 23.182C14.9651 22.7324 15.5008 22.202 15.857 21.5365L15.0004 21.078ZM13.8861 22.3899C13.4959 22.6095 13.0957 22.8062 12.707 22.9748L13.0936 23.8661C13.5112 23.6849 13.9417 23.4735 14.3627 23.2365L13.8861 22.3899ZM12.7067 22.9749C9.93042 24.181 6.72995 24.2723 3.92067 23.1537L3.56127 24.0563C6.62016 25.2743 10.0894 25.1713 13.0938 23.866L12.7067 22.9749ZM3.92004 23.1534C3.55866 23.0101 3.20164 23.0631 2.92448 23.2433C2.66176 23.4142 2.48681 23.6873 2.4237 23.9743L3.37259 24.1829C3.38479 24.1275 3.41993 24.08 3.45414 24.0578C3.46869 24.0483 3.48114 24.0444 3.49247 24.0433C3.50296 24.0421 3.52502 24.0419 3.5619 24.0566L3.92004 23.1534ZM2.44974 23.8918C2.38231 24.0536 2.34713 24.2539 2.39507 24.467L3.34293 24.2538C3.34484 24.2622 3.34461 24.2687 3.34429 24.2716C3.34402 24.2739 3.34394 24.2718 3.34656 24.2655L2.44974 23.8918ZM2.39516 24.4674C2.54617 25.1362 2.83707 25.7686 3.24564 26.3223L4.02741 25.7455C3.69761 25.2985 3.46387 24.7893 3.34285 24.2534L2.39516 24.4674ZM3.99708 25.7083C3.68623 25.3641 3.23002 25.418 2.97082 25.5118C2.69289 25.6125 2.37637 25.8421 2.25545 26.2024L3.17651 26.5115C3.17383 26.5195 3.176 26.5071 3.20227 26.4836C3.22785 26.4607 3.26349 26.4391 3.30153 26.4254C3.31974 26.4188 3.33543 26.4151 3.34742 26.4134C3.3596 26.4116 3.36495 26.4122 3.36368 26.4121C3.36064 26.4118 3.31728 26.4052 3.27598 26.3594L3.99708 25.7083ZM2.25603 26.2007C2.14806 26.5184 2.18659 26.8197 2.26616 27.0678C2.34334 27.3085 2.46874 27.5278 2.56743 27.6947L3.40374 27.2003C3.3057 27.0344 3.23193 26.8979 3.19131 26.7712C3.15308 26.6519 3.15517 26.5743 3.17594 26.5132L2.25603 26.2007ZM2.56707 27.6941C2.72774 27.9668 2.88897 28.2387 3.04981 28.51L3.88554 28.0146C3.72459 27.7431 3.56402 27.4722 3.4041 27.2009L2.56707 27.6941ZM3.06009 28.5266L3.0601 28.5266L3.87528 27.998L3.87526 27.998L3.06009 28.5266ZM3.04682 28.5049L3.04685 28.505L3.88859 28.0198L3.88856 28.0197L3.04682 28.5049ZM3.04986 28.5101C3.21083 28.7816 3.37141 29.0525 3.53134 29.3239L4.36837 28.8306C4.20768 28.558 4.04644 28.286 3.88558 28.0147L3.04986 28.5101ZM4.05751 28.6036C3.72453 28.5279 3.43368 28.6691 3.25188 28.8343C3.07127 28.9984 2.92638 29.2472 2.91325 29.5282L3.88374 29.5736C3.88308 29.5879 3.87989 29.5893 3.88464 29.58C3.88917 29.5712 3.8967 29.5611 3.9052 29.5534C3.91391 29.5455 3.91618 29.5466 3.90739 29.5496C3.90247 29.5513 3.89397 29.5534 3.88225 29.5542C3.87027 29.555 3.85652 29.5542 3.84219 29.551L4.05751 28.6036ZM2.91272 29.5509V29.5606H3.88427V29.5509H2.91272ZM3.17677 29.1284C2.90802 29.2663 2.66443 29.4907 2.53319 29.8016C2.39848 30.1208 2.4029 30.4826 2.55032 30.8442L3.45001 30.4775C3.38854 30.3267 3.4051 30.2343 3.42827 30.1794C3.45491 30.1163 3.51493 30.0469 3.62022 29.9928L3.17677 29.1284ZM2.55031 30.8442C3.79964 33.9098 6.54118 35.9543 9.41014 37.2051L9.79842 36.3145C7.05182 35.117 4.56641 33.217 3.45002 30.4776L2.55031 30.8442ZM9.41042 37.2052C12.4485 38.5275 15.8368 39.0711 19.1435 38.6133L19.0103 37.6509C15.8951 38.0822 12.6865 37.5715 9.79814 36.3144L9.41042 37.2052ZM19.1434 38.6133C22.0115 38.2167 25.3964 37.004 27.8522 34.9944C30.3248 32.971 31.8948 30.0948 30.9407 26.4548L30.0009 26.7011C30.832 29.8717 29.5067 32.3851 27.2369 34.2425C24.9504 36.1136 21.7457 37.2727 19.0104 37.6509L19.1434 38.6133ZM30.9407 26.4549C30.6141 25.208 29.9376 24.1427 29.3115 23.1503L28.4898 23.6687C29.1294 24.6825 29.7186 25.6233 30.0008 26.701L30.9407 26.4549ZM29.3115 23.1503C28.9984 22.6541 28.6969 22.1757 28.4345 21.6817L27.5765 22.1376C27.8587 22.6689 28.18 23.1777 28.4898 23.6687L29.3115 23.1503ZM28.4344 21.6816C28.2787 21.3889 28.136 21.0873 28.0015 20.7783L27.1107 21.1659C27.2531 21.4933 27.4067 21.8183 27.5765 22.1377L28.4344 21.6816ZM28.0413 20.9473C28.0212 20.5553 28.0454 20.1535 28.0901 19.7421L27.1242 19.6372C27.0766 20.0759 27.0473 20.5339 27.071 20.9969L28.0413 20.9473ZM28.0898 19.7441C28.1158 19.5135 28.1474 19.282 28.1819 19.0484L27.2208 18.9063C27.1853 19.1468 27.1521 19.39 27.1244 19.6352L28.0898 19.7441ZM27.251 19.1594L27.2714 19.2098L28.1721 18.8457L28.1517 18.7953L27.251 19.1594ZM27.9571 19.4527L28.5395 19.1301L28.0688 18.2802L27.4864 18.6028L27.9571 19.4527ZM28.3687 19.1866C28.393 19.1834 28.4173 19.18 28.4415 19.1765L28.3028 18.2149C28.2818 18.218 28.2607 18.2209 28.2396 18.2237L28.3687 19.1866ZM28.302 19.1764C28.6708 19.2302 29.0358 19.2607 29.3843 19.2735L29.4197 18.3026C29.1027 18.291 28.773 18.2633 28.4422 18.215L28.302 19.1764ZM29.3859 19.2735C29.7866 19.2868 30.9836 19.3258 32.0531 19.1525C32.5808 19.0669 33.1351 18.9215 33.5502 18.6558C33.7627 18.5197 33.9608 18.3382 34.0896 18.0954C34.2226 17.8449 34.2639 17.5625 34.2109 17.265L33.2544 17.4352C33.2719 17.5336 33.2559 17.5939 33.2315 17.6399C33.2029 17.6937 33.1436 17.7625 33.0264 17.8375C32.7818 17.9941 32.3871 18.1141 31.8977 18.1934C30.933 18.3498 29.8237 18.3159 29.4181 18.3025L29.3859 19.2735ZM33.7327 16.8643H33.7302V17.8359H33.7327V16.8643ZM34.2083 17.2641C34.1135 16.737 33.6862 16.4432 33.359 16.2847C33.0159 16.1186 32.6333 16.0285 32.4038 15.9756L32.1857 16.9224C32.4202 16.9764 32.7031 17.0466 32.9356 17.1592C33.1841 17.2795 33.2426 17.3828 33.2521 17.4361L34.2083 17.2641ZM32.4038 15.9756C32.1478 15.9166 31.8967 15.862 31.6526 15.8089L31.446 16.7582C31.6909 16.8115 31.9364 16.8649 32.1857 16.9224L32.4038 15.9756ZM31.6526 15.8089C30.698 15.6011 29.8547 15.416 29.0385 15.0621L28.652 15.9535C29.5695 16.3513 30.5062 16.5537 31.446 16.7582L31.6526 15.8089ZM29.3117 15.3719C29.1052 14.6635 28.682 14.1189 28.166 13.7479L27.5989 14.5368C27.9508 14.7898 28.2372 15.1575 28.3789 15.6437L29.3117 15.3719ZM28.3519 14.0177C27.7514 11.7561 25.896 10.3554 23.8252 9.705L23.5341 10.6319C25.4033 11.219 26.9251 12.4298 27.4129 14.267L28.3519 14.0177ZM23.8676 9.72051C23.4928 9.56325 23.1017 9.44022 22.7 9.36742L22.5267 10.3234C22.8488 10.3818 23.1718 10.4822 23.4917 10.6164L23.8676 9.72051ZM22.7002 9.36748C22.6728 9.36249 22.6465 9.35917 22.6349 9.35765L22.5092 10.321C22.5167 10.322 22.5208 10.3225 22.5242 10.323C22.5274 10.3235 22.5278 10.3236 22.5265 10.3234L22.7002 9.36748ZM22.6323 9.35732L22.6323 9.35732L22.5118 10.3214L22.5118 10.3214L22.6323 9.35732ZM22.6323 9.35732L22.6323 9.35732L22.5118 10.3214L22.5118 10.3214L22.6323 9.35732ZM22.6349 9.35765C22.6274 9.35667 22.6234 9.35614 22.6199 9.35564C22.6167 9.35518 22.6163 9.35509 22.6177 9.35533L22.4439 10.3112C22.4713 10.3162 22.4976 10.3195 22.5092 10.321L22.6349 9.35765ZM22.6676 9.36715C22.4237 9.29559 22.1733 9.23957 21.9191 9.2021L21.7774 10.1633C21.9846 10.1938 22.1909 10.2398 22.394 10.2994L22.6676 9.36715ZM21.9192 9.20211C21.8574 9.19299 21.7958 9.18509 21.7343 9.17835L21.6284 10.1441C21.6779 10.1495 21.7276 10.1559 21.7773 10.1633L21.9192 9.20211ZM21.2632 9.4131C21.2615 9.41665 21.2596 9.42021 21.2576 9.42379L22.1052 9.89866C22.1145 9.8819 22.1236 9.86486 22.1322 9.84754L21.2632 9.4131Z" fill="black" mask="url(#path-2-outside-1_5729_149046)" />
      </g>
      <path id="Union_2" fill-rule="evenodd" clip-rule="evenodd" d="M21.6977 9.63032C21.5473 9.02851 20.7064 7.77852 18.5415 7.30565C18.4849 7.29328 18.4469 7.40408 18.496 7.43497C19.1855 7.86928 20.0855 8.7584 19.7701 9.38936C19.7493 9.37552 19.7232 9.35727 19.6921 9.33559C19.3773 9.11566 18.5578 8.54313 17.7163 8.64788C17.6737 8.65319 17.6622 8.70762 17.6972 8.73251C18.1102 9.02629 18.7274 9.57683 18.8205 10.0655C16.8174 10.6814 15.1613 12.1695 14.5495 14.3024C14.0807 15.937 14.5033 17.3701 15.3024 18.808C15.7785 19.6629 15.9072 20.4135 15.4287 21.3073C15.1154 21.8926 14.6345 22.376 14.1244 22.8132C13.7188 23.0415 13.3035 23.2455 12.9003 23.4204C10.0099 24.6761 6.67505 24.7733 3.74097 23.605C3.31834 23.4374 2.97344 23.7362 2.89815 24.0786C2.86172 24.1661 2.84714 24.2632 2.869 24.3604C3.00502 24.9628 3.26734 25.5335 3.63653 26.0339C3.41064 25.7837 2.835 26.0023 2.71598 26.3569C2.58725 26.7358 2.78885 27.1147 2.98559 27.4475C3.14588 27.7195 3.30678 27.9909 3.46768 28.2623L3.46769 28.2623L3.46772 28.2624C3.62863 28.5338 3.78955 28.8052 3.94985 29.0773C3.68268 29.0165 3.41064 29.291 3.3985 29.5509V29.5606C3.02445 29.7525 2.79128 30.1484 3.00016 30.6609C4.18303 33.5634 6.7965 35.5357 9.60428 36.7598C12.5675 38.0495 15.8659 38.5766 19.0769 38.1321C24.6803 37.3573 32.256 33.3885 30.4708 26.578C30.1664 25.4156 29.5335 24.4126 28.9006 23.4095C28.5892 22.9159 28.2778 22.4223 28.0055 21.9097C27.8427 21.6036 27.6946 21.2903 27.5561 20.9721C27.5343 20.5446 27.561 20.1147 27.6071 19.6897C27.634 19.4517 27.6663 19.2144 27.7014 18.9774L27.7217 19.0278L28.3042 18.7052C28.3269 18.7021 28.3495 18.699 28.3721 18.6957C28.7219 18.7467 29.0692 18.7759 29.402 18.788C30.2084 18.8147 34.0144 18.9337 33.7327 17.3501H33.7302C33.6258 16.7696 32.7587 16.5559 32.2948 16.449C32.0421 16.3908 31.7938 16.3367 31.5493 16.2835C30.6021 16.0774 29.7121 15.8837 28.8453 15.5078C28.6712 14.9105 28.3164 14.4543 27.8824 14.1424C27.3383 12.093 25.6497 10.7872 23.6796 10.1685C23.3323 10.0227 22.9753 9.911 22.6133 9.84542C22.6 9.84299 22.586 9.84117 22.5721 9.83935L22.5721 9.83934L22.572 9.83934C22.5581 9.83752 22.5441 9.8357 22.5308 9.83327C22.3073 9.76769 22.079 9.71668 21.8483 9.68268C21.7925 9.67445 21.7368 9.66731 21.6814 9.66123C21.6871 9.65106 21.6925 9.64076 21.6977 9.63032Z" fill="#F20505" />
      <g id="Group 427321975" opacity="0.5">
        <mask id="mask0_5729_149046" style="mask-type:alpha" maskUnits="userSpaceOnUse" x="2" y="9" width="29" height="30">
          <g id="Vector" style="mix-blend-mode:overlay">
            <path d="M30.4689 26.5767C30.0147 24.8425 28.8294 23.4629 28.0036 21.9084C27.8409 21.6023 27.6927 21.289 27.5543 20.9708C27.5324 20.5434 27.5591 20.1134 27.6053 19.6884C27.7875 18.0732 28.2247 16.4847 28.0182 14.8501C27.7073 12.3896 25.8662 10.8546 23.6778 10.1672C23.3305 10.0215 22.9734 9.90973 22.6115 9.84415C22.5848 9.83929 22.5557 9.83686 22.5289 9.832C22.3055 9.76642 22.0772 9.71542 21.8464 9.68141C21.1056 9.57211 20.3891 9.65469 19.6993 9.85386C17.3117 10.2668 15.2472 11.8625 14.5476 14.3011C14.0789 15.9358 14.5015 17.3688 15.3006 18.8067C15.7767 19.6617 15.9054 20.4122 15.4269 21.306C15.1136 21.8914 14.6327 22.3747 14.1226 22.8119C13.717 23.0402 13.3016 23.2443 12.8984 23.4191C10.0081 24.6749 6.67322 24.772 3.73914 23.6037C3.31651 23.4361 2.97161 23.7349 2.89632 24.0774C2.85988 24.1648 2.84531 24.262 2.86717 24.3591C3.00319 24.9615 3.26551 25.5323 3.6347 26.0326C3.40881 25.7824 2.83317 26.001 2.71415 26.3557C2.58542 26.7346 2.78702 27.1135 2.98376 27.4462C3.30437 27.9903 3.62741 28.5319 3.94802 29.076C3.68085 29.0153 3.40881 29.2897 3.39667 29.5496C3.39667 29.5521 3.39667 29.5569 3.39667 29.5593C3.02262 29.7512 2.78945 30.1471 2.99833 30.6596C4.18119 33.5621 6.79467 35.5344 9.60245 36.7585C12.5657 38.0483 15.8641 38.5753 19.0751 38.1309C24.6785 37.356 32.2542 33.3873 30.4689 26.5767Z" fill="#FD0305" />
          </g>
        </mask>
        <g mask="url(#mask0_5729_149046)">
          <g id="Vector 2701" style="mix-blend-mode:multiply">
            <path d="M26.7578 32.7597C31.9852 30.0617 28.6052 24.808 28.2036 22.3984C31.818 23.3623 36.3962 36.1332 22.4205 41.6752C11.24 46.1089 3.22406 33.5629 0.975098 28.4224C5.31238 32.7597 19.2881 36.6151 26.7578 32.7597Z" fill="#FFE36C" />
          </g>
          <g id="Vector 2702" style="mix-blend-mode:multiply">
            <path d="M17.8423 19.7489C15.3363 19.3634 14.5492 16.3754 14.4689 14.9297C11.738 17.1786 6.17983 21.7248 5.79429 21.9175C5.40876 22.1103 5.15173 23.1223 5.07141 23.6043C13.0231 26.9777 20.9748 20.2308 17.8423 19.7489Z" fill="#FFE36C" />
          </g>
        </g>
      </g>
      <path id="Vector_2" opacity="0.23" d="M22.4682 29.6605C22.4099 29.4881 22.1622 29.4978 22.0699 29.6265C21.9703 29.7626 21.861 29.8864 21.7469 30.0006C21.4578 30.0613 21.1858 30.1463 20.9065 30.2653C20.8287 30.2993 20.7899 30.3528 20.7777 30.4135C20.7365 30.4426 20.7 30.4766 20.6636 30.5106C20.649 30.4912 20.6296 30.4742 20.6101 30.4596C20.5689 30.3941 20.4936 30.3552 20.3916 30.3795C20.1875 30.4281 19.9835 30.4766 19.7819 30.5277C19.4394 30.5908 19.1018 30.671 18.7642 30.773C18.7253 30.7851 18.6938 30.8045 18.667 30.8288C18.5043 30.8677 18.3416 30.9066 18.1788 30.943C17.7198 31.0086 17.2656 31.0887 16.8138 31.1907C16.6754 31.198 16.5369 31.2102 16.3985 31.2247C15.9929 31.2369 15.5897 31.2515 15.184 31.2636C15.1646 31.181 15.1015 31.1082 14.9922 31.0863C14.4432 30.9818 13.8967 30.9187 13.3357 30.8944C13.3308 30.8944 13.3259 30.8944 13.3235 30.8944C13.0612 30.8604 12.7989 30.8215 12.5341 30.7827C12.3884 30.7341 12.2451 30.6831 12.0994 30.6345C11.5626 30.3965 11.0331 30.1439 10.5109 29.8743C10.4453 29.8403 10.3846 29.8476 10.3311 29.8767C10.3141 29.867 10.2947 29.8573 10.2777 29.8476C10.251 29.833 10.2243 29.8257 10.1976 29.8257C9.81865 29.4128 9.49803 28.9537 9.26 28.4412C9.1337 28.1716 8.71593 28.3684 8.84224 28.638C9.12884 29.2525 9.52232 29.8014 9.99352 30.2848C10.0081 30.3212 10.0348 30.3528 10.0737 30.3795C10.0858 30.3868 10.098 30.3941 10.1125 30.4038C11.7496 32.0068 14.2392 32.8715 16.4009 33.1023C18.3999 33.316 23.5539 32.9128 22.4707 29.6581L22.4682 29.6605Z" fill="#FFE36C" />
      <path id="Vector_3" d="M33.7285 17.3506C33.6241 16.7701 32.7569 16.5564 32.293 16.4495C30.8381 16.1143 29.529 15.9176 28.2538 15.2205C28.1688 15.1501 28.0838 15.0723 27.9988 14.9922C27.9478 14.9946 27.8968 15.0019 27.8555 15.0213C27.6684 15.1136 27.5349 15.4197 27.4596 15.597C27.2167 16.1775 27.4637 16.475 27.4807 17.0968C27.4953 17.6482 27.3937 18.4655 27.7216 18.7885C27.9621 18.774 28.2089 18.8225 28.4445 18.7885C28.7943 18.8395 29.0675 18.7764 29.4002 18.7885C30.2066 18.8152 34.0127 18.9343 33.7309 17.3506H33.7285Z" fill="#FF9900" />
      <path id="Vector 2697" d="M28.9265 16.859C29.1249 15.3936 28.4517 14.4184 27.5798 13.9543C27.3008 13.8058 26.9985 14.037 26.9992 14.3531C27.0037 16.543 27.0586 17.3955 27.7217 19.0277L31.3361 17.0259L28.9265 16.859Z" fill="#FF9900" />
      <path id="Vector_4" d="M22.1064 29.4454C20.1949 30.3926 18.0915 30.8784 15.959 30.8638C13.977 30.8493 11.6137 30.4558 9.91834 29.3579C9.20182 28.8916 8.78405 27.8787 9.70946 27.3857C10.1054 27.1744 10.579 27.1331 11.0162 27.0699C11.7011 26.9728 12.3715 26.8319 13.0297 26.6279C15.3712 27.8909 18.1522 27.9419 20.5447 26.7833C20.8119 26.6546 20.569 26.2611 20.3018 26.3898C18.1911 27.4124 15.7428 27.4075 13.637 26.419C13.6637 26.4093 13.6904 26.3996 13.7147 26.3898C15.3833 25.7462 16.8674 24.7309 18.0939 23.4315C18.298 23.2153 17.9652 22.8947 17.7612 23.1109C15.959 25.02 13.6029 26.2344 11.0065 26.606C10.2997 26.708 9.43256 26.7809 8.95408 27.3881C8.43673 28.0463 8.71362 28.9183 9.27712 29.4478C10.0009 30.1279 11.1328 30.4655 12.0679 30.7448C13.1657 31.0727 14.3049 31.2573 15.4489 31.3083C17.8389 31.4176 20.2095 30.8978 22.3493 29.834C22.6165 29.7028 22.3736 29.3093 22.1064 29.4405V29.4454Z" fill="black" />
      <path id="Ellipse 197" d="M24.8962 18.1775C25.4992 17.9771 25.9255 17.4786 26.1376 16.8596C26.3497 16.2408 26.353 15.4911 26.108 14.754C25.863 14.0169 25.4115 13.4184 24.8712 13.0496C24.3308 12.6808 23.691 12.5366 23.0879 12.7371C22.4849 12.9375 22.0586 13.436 21.8465 14.055C21.6345 14.6738 21.6311 15.4235 21.8761 16.1606C22.1211 16.8977 22.5726 17.4962 23.1129 17.865C23.6534 18.2338 24.2932 18.378 24.8962 18.1775Z" fill="white" stroke="black" stroke-width="0.385536" />
      <path id="Vector_5" d="M24.3484 14.6759H24.3484L24.3483 14.6706C24.346 14.5651 24.4367 14.4543 24.593 14.4444C24.7098 14.4371 24.826 14.5486 24.8301 14.6593V14.6942H24.83L24.8301 14.6995C24.8324 14.8049 24.7418 14.9158 24.5854 14.9256C24.4686 14.933 24.3525 14.8215 24.3484 14.7107V14.6759Z" fill="white" stroke="black" stroke-width="0.48192" />
      <path id="Vector_6" d="M28.5188 15.8711L28.5187 15.8711L28.503 15.8505L28.5027 15.8501L28.4261 15.9086L28.5188 15.8711ZM28.5188 15.8711L28.5194 15.8721M28.5188 15.8711L28.5194 15.8721M28.5194 15.8721C28.5774 15.9499 28.6175 16.0406 28.6312 16.1234M28.5194 15.8721L28.6312 16.1234M28.6312 16.1234C28.6431 16.1962 28.6398 16.3097 28.5445 16.3651M28.6312 16.1234L28.5445 16.3651M28.5445 16.3651C28.4657 16.4108 28.3736 16.3934 28.3017 16.3591M28.5445 16.3651L28.3017 16.3591M28.3017 16.3591C28.2265 16.3233 28.1528 16.2606 28.0917 16.1788M28.3017 16.3591L28.0917 16.1788M28.0917 16.1788L28.092 16.1792L28.1687 16.1208L28.0914 16.1784L28.0917 16.1788Z" fill="#FFB000" stroke="#743C09" stroke-width="0.192768" />
    </g>
  </g>
</svg>