<svg viewBox="0 0 34 34" fill="none" xmlns="http://www.w3.org/2000/svg">
  <g id="Duck/Theif">
    <g id="Group 427321992">
      <g id="Union">
        <mask id="path-1-outside-1_5729_149048" maskUnits="userSpaceOnUse" x="0.831299" y="0.304688" width="33" height="33" fill="black">
          <rect fill="white" x="0.831299" y="0.304688" width="33" height="33" />
          <path fill-rule="evenodd" clip-rule="evenodd" d="M20.8536 3.63032C20.7032 3.02851 19.8623 1.77852 17.6974 1.30565C17.6408 1.29328 17.6028 1.40408 17.6519 1.43497C18.3414 1.86928 19.2414 2.7584 18.9259 3.38936C18.9052 3.37552 18.879 3.35727 18.848 3.33559C18.5332 3.11566 17.7137 2.54313 16.8722 2.64788C16.8296 2.65319 16.8181 2.70762 16.8531 2.73251C17.2661 3.02629 17.8833 3.57683 17.9764 4.0655C15.9733 4.68135 14.3172 6.1695 13.7054 8.30241C13.2366 9.93704 13.6592 11.3701 14.4583 12.808C14.9344 13.6629 15.0631 14.4135 14.5846 15.3073C14.2713 15.8926 13.7904 16.376 13.2803 16.8132C12.8747 17.0415 12.4593 17.2455 12.0562 17.4204C9.16579 18.6761 5.83094 18.7733 2.89685 17.605C2.47423 17.4374 2.12933 17.7362 2.05403 18.0786C2.0176 18.1661 2.00303 18.2632 2.02489 18.3604C2.1609 18.9628 2.42322 19.5335 2.79241 20.0339C2.56653 19.7837 1.99088 20.0023 1.87187 20.3569C1.74314 20.7358 1.94473 21.1147 2.14147 21.4475C2.30176 21.7195 2.46266 21.9909 2.62356 22.2623L2.62357 22.2623L2.6236 22.2624C2.78452 22.5338 2.94543 22.8052 3.10574 23.0773C2.83856 23.0165 2.56653 23.291 2.55438 23.5509V23.5606C2.18033 23.7525 1.94716 24.1484 2.15605 24.6609C3.33891 27.5634 5.95238 29.5357 8.76016 30.7598C11.7234 32.0495 15.0218 32.5766 18.2328 32.1321C23.8362 31.3573 31.4119 27.3885 29.6267 20.578C29.3222 19.4156 28.6894 18.4126 28.0565 17.4095C27.7451 16.9159 27.4337 16.4223 27.1613 15.9097C26.9986 15.6036 26.8504 15.2903 26.712 14.9721C26.6901 14.5446 26.7169 14.1147 26.763 13.6897C26.7898 13.4517 26.8222 13.2144 26.8572 12.9774L26.8776 13.0278L27.4601 12.7052C27.4828 12.7021 27.5054 12.699 27.528 12.6957C27.8778 12.7467 28.2251 12.7759 28.5579 12.788C29.3643 12.8147 33.1703 12.9337 32.8886 11.3501H32.8861C32.7817 10.7696 31.9146 10.5559 31.4507 10.449C31.198 10.3908 30.9497 10.3367 30.7052 10.2835C29.758 10.0774 28.868 9.88369 28.0012 9.50782C27.8271 8.91052 27.4723 8.45433 27.0383 8.14235C26.4941 6.09297 24.8056 4.78724 22.8355 4.16846C22.4882 4.02272 22.1311 3.911 21.7692 3.84542C21.7559 3.84299 21.7419 3.84117 21.728 3.83935L21.7279 3.83934L21.7279 3.83934C21.714 3.83752 21.7 3.8357 21.6866 3.83327C21.4632 3.76769 21.2349 3.71668 21.0041 3.68268C20.9484 3.67445 20.8927 3.66731 20.8372 3.66123C20.8429 3.65106 20.8484 3.64076 20.8536 3.63032Z" />
        </mask>
        <path d="M17.6974 1.30565L17.5937 1.78023L17.5937 1.78023L17.6974 1.30565ZM20.8536 3.63032L21.2881 3.84754L21.3685 3.68682L21.3249 3.5125L20.8536 3.63032ZM17.6519 1.43497L17.393 1.84601L17.6519 1.43497ZM18.9259 3.38936L18.6565 3.79355L19.1143 4.09878L19.3604 3.6066L18.9259 3.38936ZM18.848 3.33559L18.5698 3.73381L18.5698 3.73382L18.848 3.33559ZM16.8722 2.64788L16.8122 2.16583V2.16583L16.8722 2.64788ZM16.8531 2.73251L16.5715 3.12837V3.12837L16.8531 2.73251ZM17.9764 4.0655L18.1192 4.52983L18.535 4.40197L18.4536 3.97459L17.9764 4.0655ZM13.7054 8.30241L13.2384 8.16846L13.2384 8.16849L13.7054 8.30241ZM14.4583 12.808L14.0337 13.0439L14.0339 13.0443L14.4583 12.808ZM14.5846 15.3073L14.1563 15.078L14.1563 15.078L14.5846 15.3073ZM13.2803 16.8132L13.5186 17.2365L13.5602 17.2131L13.5964 17.182L13.2803 16.8132ZM12.0562 17.4204L11.8629 16.9748L11.8626 16.9749L12.0562 17.4204ZM2.89685 17.605L3.07656 17.1537L3.07592 17.1534L2.89685 17.605ZM2.05403 18.0786L2.50244 18.2655L2.51915 18.2254L2.52848 18.1829L2.05403 18.0786ZM2.02489 18.3604L1.55096 18.467L1.55104 18.4674L2.02489 18.3604ZM2.79241 20.0339L2.43186 20.3594L3.1833 19.7455L2.79241 20.0339ZM1.87187 20.3569L2.33182 20.5132L2.3324 20.5115L1.87187 20.3569ZM2.14147 21.4475L2.55999 21.2009L2.55963 21.2003L2.14147 21.4475ZM2.62356 22.2623L2.2057 22.51L2.21067 22.5184L2.21597 22.5266L2.62356 22.2623ZM2.62357 22.2623L3.04444 22.0197L3.03809 22.0087L3.03116 21.998L2.62357 22.2623ZM2.6236 22.2624L2.2027 22.505L2.20574 22.5101L2.6236 22.2624ZM3.10574 23.0773L2.99808 23.551L4.09574 23.8004L3.52425 22.8306L3.10574 23.0773ZM2.55438 23.5509L2.06914 23.5282L2.06861 23.5396V23.5509H2.55438ZM2.55438 23.5606L2.77611 23.9928L3.04016 23.8574V23.5606H2.55438ZM2.15605 24.6609L2.6059 24.4776L2.60589 24.4775L2.15605 24.6609ZM8.76016 30.7598L8.56602 31.2051L8.5663 31.2052L8.76016 30.7598ZM18.2328 32.1321L18.1662 31.6509L18.1662 31.6509L18.2328 32.1321ZM29.6267 20.578L29.1567 20.701L29.1568 20.7011L29.6267 20.578ZM28.0565 17.4095L27.6457 17.6687L28.0565 17.4095ZM27.1613 15.9097L27.5903 15.6817L27.5902 15.6816L27.1613 15.9097ZM26.712 14.9721L26.2269 14.9969L26.2314 15.085L26.2666 15.1659L26.712 14.9721ZM26.763 13.6897L26.2803 13.6352L26.2801 13.6372L26.763 13.6897ZM26.8572 12.9774L27.3076 12.7953L26.6379 11.1389L26.3767 12.9063L26.8572 12.9774ZM26.8776 13.0278L26.4273 13.2098L26.6329 13.7186L27.113 13.4527L26.8776 13.0278ZM27.4601 12.7052L27.3955 12.2237L27.3048 12.2359L27.2247 12.2802L27.4601 12.7052ZM27.528 12.6957L27.5981 12.215L27.5284 12.2049L27.4586 12.2149L27.528 12.6957ZM28.5579 12.788L28.5402 13.2735L28.5418 13.2735L28.5579 12.788ZM32.8886 11.3501L33.3668 11.265L33.2955 10.8643H32.8886V11.3501ZM32.8861 11.3501L32.408 11.4361L32.48 11.8359H32.8861V11.3501ZM31.4507 10.449L31.3416 10.9224L31.3416 10.9224L31.4507 10.449ZM30.7052 10.2835L30.6019 10.7582L30.7052 10.2835ZM28.0012 9.50782L27.5348 9.64373L27.5986 9.86274L27.8079 9.9535L28.0012 9.50782ZM27.0383 8.14235L26.5688 8.26702L26.6135 8.4352L26.7548 8.53678L27.0383 8.14235ZM22.8355 4.16846L22.6476 4.6164L22.6684 4.62514L22.6899 4.63191L22.8355 4.16846ZM21.7692 3.84542L21.6823 4.32336L21.6826 4.32341L21.7692 3.84542ZM21.728 3.83935L21.7908 3.35764L21.7882 3.35732L21.728 3.83935ZM21.7279 3.83934L21.6651 4.32104L21.6677 4.32137L21.7279 3.83934ZM21.6866 3.83327L21.5499 4.29939L21.5745 4.30662L21.5997 4.31121L21.6866 3.83327ZM21.0041 3.68268L20.9332 4.16325L20.9333 4.16327L21.0041 3.68268ZM20.8372 3.66123L20.4134 3.42379L20.0547 4.0641L20.7843 4.14411L20.8372 3.66123ZM17.5937 1.78023C19.6096 2.22055 20.284 3.3546 20.3823 3.74813L21.3249 3.5125C21.1224 2.70242 20.1149 1.33648 17.8011 0.831061L17.5937 1.78023ZM17.9107 1.02393C18.0447 1.10829 18.0952 1.23546 18.1093 1.31923C18.1228 1.39903 18.1104 1.46594 18.0938 1.51369C18.0776 1.56031 18.0438 1.62724 17.9739 1.68662C17.8962 1.75261 17.759 1.81633 17.5937 1.78023L17.8011 0.831061C17.6075 0.788774 17.4444 0.861709 17.3451 0.945968C17.2537 1.02361 17.2029 1.11785 17.1762 1.19448C17.1491 1.27225 17.133 1.37187 17.1513 1.48075C17.1703 1.5936 17.2345 1.74621 17.393 1.84601L17.9107 1.02393ZM19.3604 3.6066C19.654 3.01951 19.3399 2.42036 19.0517 2.04337C18.7368 1.63147 18.2918 1.26391 17.9107 1.02393L17.393 1.84601C17.7015 2.04034 18.0513 2.3345 18.2799 2.63347C18.5352 2.96736 18.5134 3.12825 18.4914 3.17211L19.3604 3.6066ZM18.5698 3.73382C18.5992 3.75432 18.6303 3.7761 18.6565 3.79355L19.1954 2.98516C19.18 2.97494 19.1589 2.96021 19.1262 2.93736L18.5698 3.73382ZM16.9322 3.12994C17.2293 3.09296 17.55 3.17398 17.858 3.31283C18.1623 3.45005 18.4136 3.62468 18.5698 3.73381L19.1262 2.93737C18.9676 2.82657 18.6518 2.60498 18.2573 2.42713C17.8664 2.25092 17.3566 2.09806 16.8122 2.16583L16.9322 3.12994ZM17.1346 2.33665C17.2869 2.44498 17.3431 2.6279 17.3079 2.78754C17.2716 2.95198 17.1336 3.10486 16.9322 3.12994L16.8122 2.16583C16.2772 2.23243 16.2194 2.87793 16.5715 3.12837L17.1346 2.33665ZM18.4536 3.97459C18.3807 3.59191 18.1246 3.24849 17.8915 2.99623C17.6457 2.73027 17.3609 2.49762 17.1346 2.33665L16.5715 3.12837C16.7582 3.26117 16.9886 3.45069 17.178 3.65561C17.38 3.87423 17.479 4.05042 17.4992 4.15641L18.4536 3.97459ZM17.8337 3.60117C15.6929 4.25934 13.9008 5.8592 13.2384 8.16846L14.1723 8.43635C14.7335 6.47979 16.2537 5.10337 18.1192 4.52983L17.8337 3.60117ZM13.2384 8.16849C12.7199 9.97661 13.2024 11.548 14.0337 13.0439L14.8829 12.572C14.1161 11.1921 13.7533 9.89747 14.1723 8.43632L13.2384 8.16849ZM14.0339 13.0443C14.2533 13.4383 14.3707 13.7702 14.3951 14.0811C14.4188 14.3831 14.3576 14.7021 14.1563 15.078L15.0129 15.5366C15.2902 15.0186 15.4038 14.5155 15.3637 14.0051C15.3243 13.5034 15.1394 13.0326 14.8827 12.5717L14.0339 13.0443ZM14.1563 15.078C13.8859 15.5832 13.4598 16.0195 12.9642 16.4444L13.5964 17.182C14.1209 16.7324 14.6567 16.202 15.0129 15.5365L14.1563 15.078ZM13.042 16.3899C12.6518 16.6095 12.2516 16.8062 11.8629 16.9748L12.2494 17.8661C12.6671 17.6849 13.0975 17.4735 13.5186 17.2365L13.042 16.3899ZM11.8626 16.9749C9.08631 18.181 5.88583 18.2723 3.07656 17.1537L2.71715 18.0563C5.77604 19.2743 9.24527 19.1713 12.2497 17.866L11.8626 16.9749ZM3.07592 17.1534C2.71454 17.0101 2.35752 17.0631 2.08036 17.2433C1.81764 17.4142 1.64269 17.6873 1.57959 17.9743L2.52848 18.1829C2.54067 18.1275 2.57582 18.08 2.61002 18.0578C2.62457 18.0483 2.63702 18.0444 2.64835 18.0433C2.65884 18.0421 2.68091 18.0419 2.71779 18.0566L3.07592 17.1534ZM1.60563 17.8918C1.53819 18.0536 1.50301 18.2539 1.55096 18.467L2.49881 18.2538C2.50072 18.2622 2.5005 18.2687 2.50017 18.2716C2.49991 18.2739 2.49982 18.2718 2.50244 18.2655L1.60563 17.8918ZM1.55104 18.4674C1.70205 19.1362 1.99295 19.7686 2.40153 20.3223L3.1833 19.7455C2.85349 19.2985 2.61975 18.7893 2.49873 18.2534L1.55104 18.4674ZM3.15296 19.7083C2.84212 19.3641 2.38591 19.418 2.12671 19.5118C1.84878 19.6125 1.53225 19.8421 1.41134 20.2024L2.3324 20.5115C2.32971 20.5195 2.33188 20.5071 2.35815 20.4836C2.38374 20.4607 2.41937 20.4391 2.45742 20.4254C2.47562 20.4188 2.49131 20.4151 2.5033 20.4134C2.51549 20.4116 2.52083 20.4122 2.51957 20.4121C2.51652 20.4118 2.47317 20.4052 2.43186 20.3594L3.15296 19.7083ZM1.41191 20.2007C1.30395 20.5184 1.34248 20.8197 1.42204 21.0678C1.49923 21.3085 1.62463 21.5278 1.72332 21.6947L2.55963 21.2003C2.46158 21.0344 2.38781 20.8979 2.34719 20.7712C2.30896 20.6519 2.31106 20.5743 2.33182 20.5132L1.41191 20.2007ZM1.72296 21.6941C1.88363 21.9668 2.04485 22.2387 2.2057 22.51L3.04142 22.0146C2.88047 21.7431 2.7199 21.4722 2.55999 21.2009L1.72296 21.6941ZM2.21597 22.5266L2.21599 22.5266L3.03116 21.998L3.03115 21.998L2.21597 22.5266ZM2.20271 22.5049L2.20274 22.505L3.04447 22.0198L3.04444 22.0197L2.20271 22.5049ZM2.20574 22.5101C2.36671 22.7816 2.5273 23.0525 2.68722 23.3239L3.52425 22.8306C3.36357 22.558 3.20233 22.286 3.04147 22.0147L2.20574 22.5101ZM3.2134 22.6036C2.88042 22.5279 2.58956 22.6691 2.40776 22.8343C2.22715 22.9984 2.08227 23.2472 2.06914 23.5282L3.03963 23.5736C3.03896 23.5879 3.03578 23.5893 3.04052 23.58C3.04505 23.5712 3.05258 23.5611 3.06108 23.5534C3.06979 23.5455 3.07206 23.5466 3.06327 23.5496C3.05835 23.5513 3.04985 23.5534 3.03813 23.5542C3.02615 23.555 3.0124 23.5542 2.99808 23.551L3.2134 22.6036ZM2.06861 23.5509V23.5606H3.04016V23.5509H2.06861ZM2.33266 23.1284C2.0639 23.2663 1.82031 23.4907 1.68907 23.8016C1.55437 24.1208 1.55878 24.4826 1.7062 24.8442L2.60589 24.4775C2.54442 24.3267 2.56098 24.2343 2.58416 24.1794C2.61079 24.1163 2.67082 24.0469 2.77611 23.9928L2.33266 23.1284ZM1.70619 24.8442C2.95552 27.9098 5.69706 29.9543 8.56602 31.2051L8.95431 30.3145C6.2077 29.117 3.7223 27.217 2.6059 24.4776L1.70619 24.8442ZM8.5663 31.2052C11.6044 32.5275 14.9927 33.0711 18.2994 32.6133L18.1662 31.6509C15.051 32.0822 11.8424 31.5715 8.95403 30.3144L8.5663 31.2052ZM18.2993 32.6133C21.1674 32.2167 24.5523 31.004 27.0081 28.9944C29.4807 26.971 31.0507 24.0948 30.0966 20.4548L29.1568 20.7011C29.9878 23.8717 28.6626 26.3851 26.3928 28.2425C24.1063 30.1136 20.9016 31.2727 18.1662 31.6509L18.2993 32.6133ZM30.0966 20.4549C29.77 19.208 29.0935 18.1427 28.4674 17.1503L27.6457 17.6687C28.2853 18.6825 28.8745 19.6233 29.1567 20.701L30.0966 20.4549ZM28.4674 17.1503C28.1543 16.6541 27.8527 16.1757 27.5903 15.6817L26.7323 16.1376C27.0146 16.6689 27.3359 17.1777 27.6457 17.6687L28.4674 17.1503ZM27.5902 15.6816C27.4346 15.3889 27.2919 15.0873 27.1574 14.7783L26.2666 15.1659C26.409 15.4933 26.5626 15.8183 26.7324 16.1377L27.5902 15.6816ZM27.1971 14.9473C27.1771 14.5553 27.2013 14.1535 27.2459 13.7421L26.2801 13.6372C26.2324 14.0759 26.2032 14.5339 26.2269 14.9969L27.1971 14.9473ZM27.2457 13.7441C27.2717 13.5135 27.3033 13.282 27.3378 13.0484L26.3767 12.9063C26.3411 13.1468 26.3079 13.39 26.2803 13.6352L27.2457 13.7441ZM26.4069 13.1594L26.4273 13.2098L27.328 12.8457L27.3076 12.7953L26.4069 13.1594ZM27.113 13.4527L27.6954 13.1301L27.2247 12.2802L26.6423 12.6028L27.113 13.4527ZM27.5246 13.1866C27.5489 13.1834 27.5732 13.18 27.5974 13.1765L27.4586 12.2149C27.4377 12.218 27.4166 12.2209 27.3955 12.2237L27.5246 13.1866ZM27.4579 13.1764C27.8267 13.2302 28.1917 13.2607 28.5402 13.2735L28.5756 12.3026C28.2586 12.291 27.9288 12.2633 27.5981 12.215L27.4579 13.1764ZM28.5418 13.2735C28.9425 13.2868 30.1395 13.3258 31.209 13.1525C31.7367 13.0669 32.291 12.9215 32.7061 12.6558C32.9186 12.5197 33.1167 12.3382 33.2455 12.0954C33.3785 11.8449 33.4198 11.5625 33.3668 11.265L32.4103 11.4352C32.4278 11.5336 32.4118 11.5939 32.3874 11.6399C32.3588 11.6937 32.2995 11.7625 32.1822 11.8375C31.9377 11.9941 31.543 12.1141 31.0535 12.1934C30.0888 12.3498 28.9796 12.3159 28.574 12.3025L28.5418 13.2735ZM32.8886 10.8643H32.8861V11.8359H32.8886V10.8643ZM33.3642 11.2641C33.2694 10.737 32.8421 10.4432 32.5149 10.2847C32.1718 10.1186 31.7891 10.0285 31.5597 9.97563L31.3416 10.9224C31.5761 10.9764 31.859 11.0466 32.0915 11.1592C32.3399 11.2795 32.3984 11.3828 32.408 11.4361L33.3642 11.2641ZM31.5597 9.97563C31.3037 9.91664 31.0525 9.86199 30.8085 9.80887L30.6019 10.7582C30.8468 10.8115 31.0922 10.8649 31.3416 10.9224L31.5597 9.97563ZM30.8085 9.80887C29.8539 9.60111 29.0106 9.41604 28.1944 9.06214L27.8079 9.9535C28.7254 10.3513 29.6621 10.5537 30.6019 10.7582L30.8085 9.80887ZM28.4675 9.3719C28.2611 8.66351 27.8379 8.11889 27.3219 7.74792L26.7548 8.53678C27.1066 8.78976 27.3931 9.15752 27.5348 9.64373L28.4675 9.3719ZM27.5078 8.01768C26.9073 5.75611 25.0519 4.35544 22.9811 3.705L22.6899 4.63191C24.5592 5.21904 26.081 6.42984 26.5688 8.26702L27.5078 8.01768ZM23.0235 3.72051C22.6487 3.56325 22.2576 3.44022 21.8558 3.36742L21.6826 4.32341C22.0047 4.38177 22.3277 4.4822 22.6476 4.6164L23.0235 3.72051ZM21.8561 3.36748C21.8287 3.36249 21.8024 3.35917 21.7908 3.35765L21.6651 4.32104C21.6726 4.32202 21.6766 4.32255 21.6801 4.32305C21.6833 4.3235 21.6837 4.3236 21.6823 4.32336L21.8561 3.36748ZM21.7882 3.35732L21.7882 3.35732L21.6677 4.32137L21.6677 4.32137L21.7882 3.35732ZM21.7882 3.35732L21.7882 3.35732L21.6677 4.32137L21.6677 4.32137L21.7882 3.35732ZM21.7908 3.35765C21.7833 3.35667 21.7792 3.35614 21.7758 3.35564C21.7726 3.35518 21.7722 3.35509 21.7736 3.35533L21.5997 4.31121C21.6272 4.3162 21.6535 4.31952 21.6651 4.32104L21.7908 3.35765ZM21.8234 3.36715C21.5796 3.29559 21.3292 3.23957 21.075 3.2021L20.9333 4.16327C21.1405 4.1938 21.3468 4.2398 21.5499 4.29939L21.8234 3.36715ZM21.075 3.20211C21.0133 3.19299 20.9516 3.18509 20.8902 3.17835L20.7843 4.14411C20.8338 4.14954 20.8835 4.15591 20.9332 4.16325L21.075 3.20211ZM20.4191 3.4131C20.4173 3.41665 20.4154 3.42021 20.4134 3.42379L21.261 3.89866C21.2704 3.8819 21.2795 3.86486 21.2881 3.84754L20.4191 3.4131Z" fill="black" mask="url(#path-1-outside-1_5729_149048)" />
      </g>
      <path id="Union_2" fill-rule="evenodd" clip-rule="evenodd" d="M20.8536 3.63032C20.7032 3.02851 19.8623 1.77852 17.6974 1.30565C17.6408 1.29328 17.6028 1.40408 17.6519 1.43497C18.3414 1.86928 19.2414 2.7584 18.9259 3.38936C18.9052 3.37552 18.879 3.35727 18.848 3.33559C18.5332 3.11566 17.7137 2.54313 16.8722 2.64788C16.8296 2.65319 16.8181 2.70762 16.8531 2.73251C17.2661 3.02629 17.8833 3.57683 17.9764 4.0655C15.9733 4.68135 14.3172 6.1695 13.7054 8.30241C13.2366 9.93704 13.6592 11.3701 14.4583 12.808C14.9344 13.6629 15.0631 14.4135 14.5846 15.3073C14.2713 15.8926 13.7904 16.376 13.2803 16.8132C12.8747 17.0415 12.4593 17.2455 12.0562 17.4204C9.16579 18.6761 5.83094 18.7733 2.89685 17.605C2.47423 17.4374 2.12933 17.7362 2.05403 18.0786C2.0176 18.1661 2.00303 18.2632 2.02489 18.3604C2.1609 18.9628 2.42322 19.5335 2.79241 20.0339C2.56653 19.7837 1.99088 20.0023 1.87187 20.3569C1.74314 20.7358 1.94473 21.1147 2.14147 21.4475C2.30176 21.7195 2.46266 21.9909 2.62356 22.2623L2.62357 22.2623L2.6236 22.2624C2.78452 22.5338 2.94543 22.8052 3.10574 23.0773C2.83856 23.0165 2.56653 23.291 2.55438 23.5509V23.5606C2.18033 23.7525 1.94716 24.1484 2.15605 24.6609C3.33891 27.5634 5.95238 29.5357 8.76016 30.7598C11.7234 32.0495 15.0218 32.5766 18.2328 32.1321C23.8362 31.3573 31.4119 27.3885 29.6267 20.578C29.3222 19.4156 28.6894 18.4126 28.0565 17.4095C27.7451 16.9159 27.4337 16.4223 27.1613 15.9097C26.9986 15.6036 26.8504 15.2903 26.712 14.9721C26.6901 14.5446 26.7169 14.1147 26.763 13.6897C26.7898 13.4517 26.8222 13.2144 26.8572 12.9774L26.8776 13.0278L27.4601 12.7052C27.4828 12.7021 27.5054 12.699 27.528 12.6957C27.8778 12.7467 28.2251 12.7759 28.5579 12.788C29.3643 12.8147 33.1703 12.9337 32.8886 11.3501H32.8861C32.7817 10.7696 31.9146 10.5559 31.4507 10.449C31.198 10.3908 30.9497 10.3367 30.7052 10.2835C29.758 10.0774 28.868 9.88369 28.0012 9.50782C27.8271 8.91052 27.4723 8.45433 27.0383 8.14235C26.4941 6.09297 24.8056 4.78724 22.8355 4.16846C22.4882 4.02272 22.1311 3.911 21.7692 3.84542C21.7559 3.84299 21.7419 3.84117 21.728 3.83935L21.7279 3.83934L21.7279 3.83934C21.714 3.83752 21.7 3.8357 21.6866 3.83327C21.4632 3.76769 21.2349 3.71668 21.0041 3.68268C20.9484 3.67445 20.8927 3.66731 20.8372 3.66123C20.8429 3.65106 20.8484 3.64076 20.8536 3.63032Z" fill="#FFE36C" />
      <g id="Group 427321975" opacity="0.5">
        <mask id="mask0_5729_149048" style="mask-type:alpha" maskUnits="userSpaceOnUse" x="1" y="3" width="29" height="30">
          <g id="Vector" style="mix-blend-mode:overlay">
            <path d="M29.6248 20.5767C29.1706 18.8425 27.9853 17.4629 27.1595 15.9084C26.9968 15.6023 26.8486 15.289 26.7102 14.9708C26.6883 14.5434 26.715 14.1134 26.7612 13.6884C26.9433 12.0732 27.3805 10.4847 27.1741 8.85006C26.8632 6.38961 25.0221 4.85456 22.8337 4.16719C22.4864 4.02145 22.1293 3.90973 21.7674 3.84415C21.7407 3.83929 21.7115 3.83686 21.6848 3.832C21.4614 3.76642 21.233 3.71542 21.0023 3.68141C20.2615 3.57211 19.545 3.65469 18.8552 3.85386C16.4676 4.26677 14.403 5.86254 13.7035 8.30114C13.2348 9.93577 13.6574 11.3688 14.4565 12.8067C14.9325 13.6617 15.0613 14.4122 14.5828 15.306C14.2695 15.8914 13.7885 16.3747 13.2785 16.8119C12.8729 17.0402 12.4575 17.2443 12.0543 17.4191C9.16396 18.6749 5.82911 18.772 2.89502 17.6037C2.4724 17.4361 2.1275 17.7349 2.0522 18.0774C2.01577 18.1648 2.0012 18.262 2.02306 18.3591C2.15907 18.9615 2.42139 19.5323 2.79058 20.0326C2.56469 19.7824 1.98905 20.001 1.87004 20.3557C1.74131 20.7346 1.9429 21.1135 2.13964 21.4462C2.46025 21.9903 2.78329 22.5319 3.10391 23.076C2.83673 23.0153 2.56469 23.2897 2.55255 23.5496C2.55255 23.5521 2.55255 23.5569 2.55255 23.5593C2.1785 23.7512 1.94533 24.1471 2.15421 24.6596C3.33708 27.5621 5.95055 29.5344 8.75833 30.7585C11.7216 32.0483 15.02 32.5753 18.231 32.1309C23.8344 31.356 31.41 27.3873 29.6248 20.5767Z" fill="#4E2478" />
          </g>
        </mask>
        <g mask="url(#mask0_5729_149048)">
          <g id="Vector 2701" style="mix-blend-mode:multiply">
            <path d="M25.9137 26.7597C31.1411 24.0617 27.7611 18.808 27.3595 16.3984C30.9739 17.3623 35.5521 30.1332 21.5764 35.6752C10.3959 40.1089 2.37994 27.5629 0.130981 22.4224C4.46826 26.7597 18.4439 30.6151 25.9137 26.7597Z" fill="#FFE36C" />
          </g>
          <g id="Vector 2702" style="mix-blend-mode:multiply">
            <path d="M16.9982 13.7489C14.4922 13.3634 13.7051 10.3754 13.6247 8.92969C10.8939 11.1786 5.33571 15.7248 4.95018 15.9175C4.56464 16.1103 4.30761 17.1223 4.22729 17.6043C12.179 20.9777 20.1307 14.2308 16.9982 13.7489Z" fill="#FFE36C" />
          </g>
        </g>
      </g>
      <g id="Group 427321979">
        <rect id="Rectangle 39462" x="9.66797" y="19.5078" width="1.22811" height="5.32183" rx="0.614057" transform="rotate(-116.814 9.66797 19.5078)" fill="#B4B4B4" />
        <path id="Vector 2705" d="M9.64872 14.9326L10.9414 17.49L11.8548 17.0284L10.5621 14.4709L11.0158 13.5535L10.4658 13.3729L8.63902 14.2962L8.73335 14.9366L9.64872 14.9326Z" fill="#D14D4D" />
        <path id="Vector 2706" d="M15.8432 29.0025L10.7648 18.9553L13.3222 17.6626L18.4006 27.7098L17.7682 29.6349L15.8432 29.0025Z" fill="white" />
        <g id="Union_3">
          <mask id="path-10-outside-2_5729_149048" maskUnits="userSpaceOnUse" x="5.92928" y="11.1724" width="15.2694" height="21.0072" fill="black">
            <rect fill="white" x="5.92928" y="11.1724" width="15.2694" height="21.0072" />
            <path fill-rule="evenodd" clip-rule="evenodd" d="M10.216 19.2329C9.91329 19.3859 9.54391 19.2645 9.39092 18.9619C9.23794 18.6592 9.35928 18.2898 9.66195 18.1368L13.3155 16.2902C13.6181 16.1372 13.9875 16.2585 14.1405 16.5612C14.2935 16.8639 14.1721 17.2332 13.8695 17.3862L10.216 19.2329ZM9.6487 14.9303L10.9414 17.4877L11.8548 17.0261L10.5621 14.4686L11.0158 13.5512L10.4658 13.3705L8.639 14.2939L8.73333 14.9343L9.6487 14.9303ZM10.7647 18.9557L15.8431 29.0028L17.7682 29.6352L18.4006 27.7102L13.3222 17.663L10.7647 18.9557Z" />
          </mask>
          <path d="M10.216 19.2329L10.4334 19.663L10.216 19.2329ZM13.8695 17.3862L13.6521 16.9561L13.8695 17.3862ZM10.9414 17.4877L10.5113 17.7051L10.7287 18.1352L11.1588 17.9178L10.9414 17.4877ZM9.6487 14.9303L10.0788 14.7129L9.94444 14.4471L9.6466 14.4484L9.6487 14.9303ZM11.8548 17.0261L12.0722 17.4562L12.5023 17.2388L12.2849 16.8087L11.8548 17.0261ZM10.5621 14.4686L10.1301 14.255L10.0233 14.4709L10.132 14.686L10.5621 14.4686ZM11.0158 13.5512L11.4478 13.7649L11.6941 13.2668L11.1662 13.0934L11.0158 13.5512ZM10.4658 13.3705L10.6162 12.9127L10.4265 12.8504L10.2484 12.9404L10.4658 13.3705ZM8.639 14.2939L8.42161 13.8638L8.11161 14.0205L8.16223 14.3641L8.639 14.2939ZM8.73333 14.9343L8.25655 15.0045L8.31746 15.418L8.73543 15.4162L8.73333 14.9343ZM15.8431 29.0028L15.413 29.2202L15.5031 29.3984L15.6927 29.4607L15.8431 29.0028ZM10.7647 18.9557L10.5473 18.5256L10.1172 18.7429L10.3346 19.173L10.7647 18.9557ZM17.7682 29.6352L17.6178 30.0931L18.0756 30.2435L18.226 29.7856L17.7682 29.6352ZM18.4006 27.7102L18.8584 27.8606L18.9207 27.6709L18.8307 27.4928L18.4006 27.7102ZM13.3222 17.663L13.7523 17.4456L13.5349 17.0155L13.1048 17.2329L13.3222 17.663ZM8.96082 19.1793C9.23387 19.7195 9.89315 19.9361 10.4334 19.663L9.99856 18.8028C9.93343 18.8357 9.85394 18.8096 9.82102 18.7445L8.96082 19.1793ZM9.44455 17.7067C8.90435 17.9798 8.68778 18.6391 8.96082 19.1793L9.82102 18.7445C9.7881 18.6794 9.81422 18.5999 9.87935 18.5669L9.44455 17.7067ZM13.0981 15.8601L9.44455 17.7067L9.87935 18.5669L13.5329 16.7203L13.0981 15.8601ZM14.5706 16.3438C14.2976 15.8036 13.6383 15.587 13.0981 15.8601L13.5329 16.7203C13.598 16.6873 13.6775 16.7135 13.7104 16.7786L14.5706 16.3438ZM14.0869 17.8163C14.6271 17.5433 14.8437 16.884 14.5706 16.3438L13.7104 16.7786C13.7433 16.8437 13.7172 16.9232 13.6521 16.9561L14.0869 17.8163ZM10.4334 19.663L14.0869 17.8163L13.6521 16.9561L9.99856 18.8028L10.4334 19.663ZM11.3715 17.2703L10.0788 14.7129L9.2186 15.1477L10.5113 17.7051L11.3715 17.2703ZM11.6374 16.596L10.724 17.0576L11.1588 17.9178L12.0722 17.4562L11.6374 16.596ZM10.132 14.686L11.4247 17.2435L12.2849 16.8087L10.9922 14.2512L10.132 14.686ZM10.5838 13.3376L10.1301 14.255L10.9941 14.6822L11.4478 13.7649L10.5838 13.3376ZM10.3154 13.8284L10.8654 14.0091L11.1662 13.0934L10.6162 12.9127L10.3154 13.8284ZM8.8564 14.724L10.6832 13.8006L10.2484 12.9404L8.42161 13.8638L8.8564 14.724ZM9.2101 14.864L9.11578 14.2237L8.16223 14.3641L8.25655 15.0045L9.2101 14.864ZM9.6466 14.4484L8.73123 14.4523L8.73543 15.4162L9.6508 15.4122L9.6466 14.4484ZM16.2732 28.7854L11.1948 18.7383L10.3346 19.173L15.413 29.2202L16.2732 28.7854ZM17.9186 29.1774L15.9935 28.545L15.6927 29.4607L17.6178 30.0931L17.9186 29.1774ZM17.9427 27.5598L17.3103 29.4848L18.226 29.7856L18.8584 27.8606L17.9427 27.5598ZM12.8921 17.8804L17.9705 27.9276L18.8307 27.4928L13.7523 17.4456L12.8921 17.8804ZM10.9821 19.3858L13.5396 18.0931L13.1048 17.2329L10.5473 18.5256L10.9821 19.3858Z" fill="black" mask="url(#path-10-outside-2_5729_149048)" />
        </g>
      </g>
      <path id="Vector 2704" d="M25.4318 5.55469C22.1547 5.55469 15.8737 8.12493 12.9019 9.41005V10.1329C15.0223 11.8678 23.1828 12.9441 26.8775 13.2654C28.8052 9.98835 26.8775 6.75949 25.4318 5.55469Z" fill="#000006" />
      <path id="Vector_2" opacity="0.23" d="M21.6241 23.6684C21.5658 23.4959 21.3181 23.5056 21.2258 23.6343C21.1262 23.7704 21.0169 23.8942 20.9027 24.0084C20.6137 24.0691 20.3417 24.1541 20.0624 24.2731C19.9846 24.3071 19.9458 24.3606 19.9336 24.4213C19.8923 24.4505 19.8559 24.4845 19.8195 24.5185C19.8049 24.499 19.7855 24.482 19.766 24.4675C19.7247 24.4019 19.6494 24.363 19.5474 24.3873C19.3434 24.4359 19.1394 24.4845 18.9378 24.5355C18.5953 24.5986 18.2577 24.6788 17.9201 24.7808C17.8812 24.7929 17.8496 24.8124 17.8229 24.8366C17.6602 24.8755 17.4975 24.9144 17.3347 24.9508C16.8757 25.0164 16.4215 25.0965 15.9697 25.1985C15.8313 25.2058 15.6928 25.218 15.5544 25.2325C15.1487 25.2447 14.7455 25.2593 14.3399 25.2714C14.3205 25.1888 14.2573 25.116 14.148 25.0941C13.5991 24.9897 13.0526 24.9265 12.4915 24.9022C12.4867 24.9022 12.4818 24.9022 12.4794 24.9022C12.2171 24.8682 11.9548 24.8294 11.69 24.7905C11.5443 24.7419 11.401 24.6909 11.2552 24.6423C10.7185 24.4043 10.189 24.1517 9.66676 23.8821C9.60118 23.8481 9.54046 23.8554 9.48702 23.8845C9.47002 23.8748 9.45059 23.8651 9.43359 23.8554C9.40687 23.8408 9.38015 23.8335 9.35343 23.8335C8.97453 23.4206 8.65392 22.9615 8.41589 22.4491C8.28959 22.1795 7.87182 22.3762 7.99812 22.6458C8.28473 23.2603 8.67821 23.8092 9.14941 24.2926C9.16398 24.329 9.1907 24.3606 9.22956 24.3873C9.24171 24.3946 9.25385 24.4019 9.26842 24.4116C10.9055 26.0146 13.3951 26.8793 15.5568 27.1101C17.5558 27.3238 22.7098 26.9206 21.6266 23.6659L21.6241 23.6684Z" fill="#FFE36C" />
      <path id="Vector_3" d="M32.8844 11.3506C32.7799 10.7701 31.9128 10.5564 31.4489 10.4495C29.994 10.1143 28.6849 9.91759 27.4097 9.2205C27.3247 9.15006 27.2397 9.07234 27.1547 8.99219C27.1037 8.99462 27.0526 9.0019 27.0114 9.02133C26.8243 9.11363 26.6907 9.41967 26.6155 9.59698C26.3726 10.1775 26.6196 10.475 26.6366 11.0968C26.6511 11.6482 26.5496 12.4655 26.8775 12.7885C27.118 12.774 27.3648 12.8225 27.6004 12.7885C27.9502 12.8395 28.2234 12.7764 28.5561 12.7885C29.3625 12.8152 33.1686 12.9343 32.8868 11.3506H32.8844Z" fill="#FF9900" />
      <path id="Vector 2697" d="M28.0823 10.859C28.2808 9.39358 27.6076 8.41843 26.7357 7.95429C26.4567 7.80576 26.1544 8.03704 26.1551 8.35313C26.1596 10.543 26.2145 11.3955 26.8775 13.0277L30.4919 11.0259L28.0823 10.859Z" fill="#FF9900" />
      <path id="Vector 2707" d="M21.5764 23.6321C21.9619 22.8611 18.8455 19.1342 17.2391 17.3672C13.3838 20.4997 10.9742 20.7406 9.5284 20.9816C8.37179 21.1744 8.08264 22.0257 8.08264 22.4273C11.938 26.4755 18.6849 24.9173 21.5764 23.6321Z" fill="#FFE36C" />
      <path id="Vector_4" d="M21.2623 23.4454C19.3508 24.3926 17.2474 24.8784 15.1148 24.8638C13.1329 24.8493 10.7696 24.4558 9.07422 23.3579C8.35771 22.8916 7.93994 21.8787 8.86534 21.3857C9.26125 21.1744 9.73488 21.1331 10.1721 21.0699C10.857 20.9728 11.5274 20.8319 12.1856 20.6279C14.5271 21.8909 17.3081 21.9419 19.7006 20.7833C19.9677 20.6546 19.7249 20.2611 19.4577 20.3898C17.347 21.4124 14.8987 21.4075 12.7928 20.419C12.8196 20.4093 12.8463 20.3996 12.8706 20.3898C14.5392 19.7462 16.0232 18.7309 17.2498 17.4315C17.4539 17.2153 17.1211 16.8947 16.9171 17.1109C15.1148 19.02 12.7588 20.2344 10.1624 20.606C9.45556 20.708 8.58845 20.7809 8.10996 21.3881C7.59261 22.0463 7.8695 22.9183 8.433 23.4478C9.15681 24.1279 10.2887 24.4655 11.2238 24.7448C12.3216 25.0727 13.4608 25.2573 14.6048 25.3083C16.9948 25.4176 19.3654 24.8978 21.5052 23.834C21.7724 23.7028 21.5295 23.3093 21.2623 23.4405V23.4454Z" fill="black" />
      <path id="Ellipse 197" d="M24.0521 12.1775C24.6551 11.9771 25.0814 11.4786 25.2935 10.8596C25.5055 10.2408 25.5089 9.4911 25.2639 8.75401C25.0189 8.01693 24.5674 7.41838 24.0271 7.04963C23.4866 6.68077 22.8468 6.53664 22.2438 6.73708C21.6407 6.93752 21.2145 7.43598 21.0024 8.05499C20.7903 8.67381 20.787 9.42352 21.032 10.1606C21.277 10.8977 21.7285 11.4962 22.2688 11.865C22.8092 12.2338 23.449 12.378 24.0521 12.1775Z" fill="white" stroke="black" stroke-width="0.385536" />
      <path id="Vector_5" d="M23.5043 8.68375H23.5043L23.5042 8.67845C23.5019 8.57296 23.5925 8.46213 23.7489 8.45226C23.8657 8.44489 23.9819 8.55643 23.986 8.66716V8.70197H23.9859L23.986 8.70727C23.9883 8.81276 23.8977 8.92359 23.7413 8.93345C23.6245 8.94082 23.5083 8.82928 23.5043 8.71856V8.68375Z" fill="white" stroke="black" stroke-width="0.48192" />
      <path id="Vector_6" d="M27.6746 9.87896L27.6746 9.87896L27.6589 9.85832L27.6586 9.85791L27.5819 9.91637L27.6746 9.87896ZM27.6746 9.87896L27.6753 9.87987M27.6746 9.87896L27.6753 9.87987M27.6753 9.87987C27.7332 9.95767 27.7734 10.0484 27.7871 10.1312M27.6753 9.87987L27.7871 10.1312M27.7871 10.1312C27.799 10.204 27.7957 10.3175 27.7004 10.3729M27.7871 10.1312L27.7004 10.3729M27.7004 10.3729C27.6216 10.4186 27.5295 10.4012 27.4576 10.367M27.7004 10.3729L27.4576 10.367M27.4576 10.367C27.3824 10.3311 27.3087 10.2684 27.2476 10.1867M27.4576 10.367L27.2476 10.1867M27.2476 10.1867L27.2479 10.1871L27.3245 10.1286L27.2473 10.1862L27.2476 10.1867Z" fill="#FFB000" stroke="#743C09" stroke-width="0.192768" />
      <rect id="Rectangle 39461" x="11.697" y="9.01562" width="1.44576" height="2.4096" rx="0.72288" transform="rotate(-13.0629 11.697 9.01562)" fill="#000006" />
    </g>
  </g>
</svg>